<?xml version="1.0" encoding="UTF-8"?><svg id="bold" xmlns="http://www.w3.org/2000/svg" viewBox="0 0 24 24"><defs><style>.cls-1{fill:#1d1e1f;}</style></defs><rect class="cls-1" x="18.24" y="18.24" width=".96" height=".96"/><rect class="cls-1" x="18.24" y="17.28" width=".96" height=".96"/><rect class="cls-1" x="18.24" y="16.32" width=".96" height=".96"/><rect class="cls-1" x="18.24" y="15.36" width=".96" height=".96"/><rect class="cls-1" x="18.24" y="14.4" width=".96" height=".96"/><rect class="cls-1" x="18.24" y="13.44" width=".96" height=".96"/><rect class="cls-1" x="18.24" y="12.48" width=".96" height=".96"/><rect class="cls-1" x="17.28" y="20.16" width=".96" height=".96"/><rect class="cls-1" x="17.28" y="19.2" width=".96" height=".96"/><rect class="cls-1" x="17.28" y="18.24" width=".96" height=".96"/><rect class="cls-1" x="17.28" y="17.28" width=".96" height=".96"/><rect class="cls-1" x="17.28" y="16.32" width=".96" height=".96"/><rect class="cls-1" x="17.28" y="15.36" width=".96" height=".96"/><rect class="cls-1" x="17.28" y="14.4" width=".96" height=".96"/><rect class="cls-1" x="17.28" y="13.44" width=".96" height=".96"/><rect class="cls-1" x="17.28" y="12.48" width=".96" height=".96"/><rect class="cls-1" x="17.28" y="11.52" width=".96" height=".96"/><rect class="cls-1" x="17.28" y="9.6" width=".96" height=".96"/><rect class="cls-1" x="17.28" y="8.64" width=".96" height=".96"/><rect class="cls-1" x="17.28" y="7.68" width=".96" height=".96"/><rect class="cls-1" x="17.28" y="6.72" width=".96" height=".96"/><rect class="cls-1" x="17.28" y="5.76" width=".96" height=".96"/><rect class="cls-1" x="17.28" y="4.8" width=".96" height=".96"/><rect class="cls-1" x="16.32" y="21.12" width=".96" height=".96"/><rect class="cls-1" x="16.32" y="20.16" width=".96" height=".96"/><rect class="cls-1" x="16.32" y="19.2" width=".96" height=".96"/><rect class="cls-1" x="16.32" y="18.24" width=".96" height=".96"/><rect class="cls-1" x="16.32" y="17.28" width=".96" height=".96"/><rect class="cls-1" x="16.32" y="16.32" width=".96" height=".96"/><rect class="cls-1" x="16.32" y="15.36" width=".96" height=".96"/><rect class="cls-1" x="16.32" y="14.4" width=".96" height=".96"/><rect class="cls-1" x="16.32" y="13.44" width=".96" height=".96"/><rect class="cls-1" x="16.32" y="12.48" width=".96" height=".96"/><rect class="cls-1" x="16.32" y="11.52" width=".96" height=".96"/><rect class="cls-1" x="16.32" y="10.56" width=".96" height=".96"/><rect class="cls-1" x="16.32" y="9.6" width=".96" height=".96"/><rect class="cls-1" x="16.32" y="8.64" width=".96" height=".96"/><rect class="cls-1" x="16.32" y="7.68" width=".96" height=".96"/><rect class="cls-1" x="16.32" y="6.72" width=".96" height=".96"/><rect class="cls-1" x="16.32" y="5.76" width=".96" height=".96"/><rect class="cls-1" x="16.32" y="4.8" width=".96" height=".96"/><rect class="cls-1" x="16.32" y="3.84" width=".96" height=".96"/><rect class="cls-1" x="15.36" y="21.12" width=".96" height=".96"/><rect class="cls-1" x="15.36" y="20.16" width=".96" height=".96"/><rect class="cls-1" x="15.36" y="19.2" width=".96" height=".96"/><rect class="cls-1" x="15.36" y="12.48" width=".96" height=".96"/><rect class="cls-1" x="15.36" y="11.52" width=".96" height=".96"/><rect class="cls-1" x="15.36" y="10.56" width=".96" height=".96"/><rect class="cls-1" x="15.36" y="9.6" width=".96" height=".96"/><rect class="cls-1" x="15.36" y="8.64" width=".96" height=".96"/><rect class="cls-1" x="15.36" y="7.68" width=".96" height=".96"/><rect class="cls-1" x="15.36" y="6.72" width=".96" height=".96"/><rect class="cls-1" x="15.36" y="5.76" width=".96" height=".96"/><rect class="cls-1" x="15.36" y="4.8" width=".96" height=".96"/><rect class="cls-1" x="15.36" y="3.84" width=".96" height=".96"/><rect class="cls-1" x="15.36" y="2.88" width=".96" height=".96"/><rect class="cls-1" x="14.4" y="21.12" width=".96" height=".96"/><rect class="cls-1" x="14.4" y="20.16" width=".96" height=".96"/><rect class="cls-1" x="14.4" y="19.2" width=".96" height=".96"/><rect class="cls-1" x="14.4" y="12.48" width=".96" height=".96"/><rect class="cls-1" x="14.4" y="11.52" width=".96" height=".96"/><rect class="cls-1" x="14.4" y="10.56" width=".96" height=".96"/><rect class="cls-1" x="14.4" y="4.8" width=".96" height=".96"/><rect class="cls-1" x="14.4" y="3.84" width=".96" height=".96"/><rect class="cls-1" x="14.4" y="2.88" width=".96" height=".96"/><rect class="cls-1" x="13.44" y="21.12" width=".96" height=".96"/><rect class="cls-1" x="13.44" y="20.16" width=".96" height=".96"/><rect class="cls-1" x="13.44" y="19.2" width=".96" height=".96"/><rect class="cls-1" x="13.44" y="12.48" width=".96" height=".96"/><rect class="cls-1" x="13.44" y="11.52" width=".96" height=".96"/><rect class="cls-1" x="13.44" y="10.56" width=".96" height=".96"/><rect class="cls-1" x="13.44" y="4.8" width=".96" height=".96"/><rect class="cls-1" x="13.44" y="3.84" width=".96" height=".96"/><rect class="cls-1" x="13.44" y="2.88" width=".96" height=".96"/><rect class="cls-1" x="12.48" y="21.12" width=".96" height=".96"/><rect class="cls-1" x="12.48" y="20.16" width=".96" height=".96"/><rect class="cls-1" x="12.48" y="19.2" width=".96" height=".96"/><rect class="cls-1" x="12.48" y="12.48" width=".96" height=".96"/><rect class="cls-1" x="12.48" y="11.52" width=".96" height=".96"/><rect class="cls-1" x="12.48" y="10.56" width=".96" height=".96"/><rect class="cls-1" x="12.48" y="4.8" width=".96" height=".96"/><rect class="cls-1" x="12.48" y="3.84" width=".96" height=".96"/><rect class="cls-1" x="12.48" y="2.88" width=".96" height=".96"/><rect class="cls-1" x="11.52" y="21.12" width=".96" height=".96"/><rect class="cls-1" x="11.52" y="20.16" width=".96" height=".96"/><rect class="cls-1" x="11.52" y="19.2" width=".96" height=".96"/><rect class="cls-1" x="11.52" y="12.48" width=".96" height=".96"/><rect class="cls-1" x="11.52" y="11.52" width=".96" height=".96"/><rect class="cls-1" x="11.52" y="10.56" width=".96" height=".96"/><rect class="cls-1" x="11.52" y="4.8" width=".96" height=".96"/><rect class="cls-1" x="11.52" y="3.84" width=".96" height=".96"/><rect class="cls-1" x="11.52" y="2.88" width=".96" height=".96"/><rect class="cls-1" x="10.56" y="21.12" width=".96" height=".96"/><rect class="cls-1" x="10.56" y="20.16" width=".96" height=".96"/><rect class="cls-1" x="10.56" y="19.2" width=".96" height=".96"/><rect class="cls-1" x="10.56" y="12.48" width=".96" height=".96"/><rect class="cls-1" x="10.56" y="11.52" width=".96" height=".96"/><rect class="cls-1" x="10.56" y="10.56" width=".96" height=".96"/><rect class="cls-1" x="10.56" y="4.8" width=".96" height=".96"/><rect class="cls-1" x="10.56" y="3.84" width=".96" height=".96"/><rect class="cls-1" x="10.56" y="2.88" width=".96" height=".96"/><rect class="cls-1" x="9.6" y="21.12" width=".96" height=".96"/><rect class="cls-1" x="9.6" y="20.16" width=".96" height=".96"/><rect class="cls-1" x="9.6" y="19.2" width=".96" height=".96"/><rect class="cls-1" x="9.6" y="12.48" width=".96" height=".96"/><rect class="cls-1" x="9.6" y="11.52" width=".96" height=".96"/><rect class="cls-1" x="9.6" y="10.56" width=".96" height=".96"/><rect class="cls-1" x="9.6" y="4.8" width=".96" height=".96"/><rect class="cls-1" x="9.6" y="3.84" width=".96" height=".96"/><rect class="cls-1" x="9.6" y="2.88" width=".96" height=".96"/><rect class="cls-1" x="8.64" y="21.12" width=".96" height=".96"/><rect class="cls-1" x="8.64" y="20.16" width=".96" height=".96"/><rect class="cls-1" x="8.64" y="19.2" width=".96" height=".96"/><rect class="cls-1" x="8.64" y="12.48" width=".96" height=".96"/><rect class="cls-1" x="8.64" y="11.52" width=".96" height=".96"/><rect class="cls-1" x="8.64" y="10.56" width=".96" height=".96"/><rect class="cls-1" x="8.64" y="4.8" width=".96" height=".96"/><rect class="cls-1" x="8.64" y="3.84" width=".96" height=".96"/><rect class="cls-1" x="8.64" y="2.88" width=".96" height=".96"/><rect class="cls-1" x="7.68" y="21.12" width=".96" height=".96"/><rect class="cls-1" x="7.68" y="20.16" width=".96" height=".96"/><rect class="cls-1" x="7.68" y="19.2" width=".96" height=".96"/><rect class="cls-1" x="7.68" y="18.24" width=".96" height=".96"/><rect class="cls-1" x="7.68" y="17.28" width=".96" height=".96"/><rect class="cls-1" x="7.68" y="16.32" width=".96" height=".96"/><rect class="cls-1" x="7.68" y="15.36" width=".96" height=".96"/><rect class="cls-1" x="7.68" y="14.4" width=".96" height=".96"/><rect class="cls-1" x="7.68" y="13.44" width=".96" height=".96"/><rect class="cls-1" x="7.68" y="12.48" width=".96" height=".96"/><rect class="cls-1" x="7.68" y="11.52" width=".96" height=".96"/><rect class="cls-1" x="7.68" y="10.56" width=".96" height=".96"/><rect class="cls-1" x="7.68" y="9.6" width=".96" height=".96"/><rect class="cls-1" x="7.68" y="8.64" width=".96" height=".96"/><rect class="cls-1" x="7.68" y="7.68" width=".96" height=".96"/><rect class="cls-1" x="7.68" y="6.72" width=".96" height=".96"/><rect class="cls-1" x="7.68" y="5.76" width=".96" height=".96"/><rect class="cls-1" x="7.68" y="4.8" width=".96" height=".96"/><rect class="cls-1" x="7.68" y="3.84" width=".96" height=".96"/><rect class="cls-1" x="7.68" y="2.88" width=".96" height=".96"/><rect class="cls-1" x="6.72" y="21.12" width=".96" height=".96"/><rect class="cls-1" x="6.72" y="20.16" width=".96" height=".96"/><rect class="cls-1" x="6.72" y="19.2" width=".96" height=".96"/><rect class="cls-1" x="6.72" y="18.24" width=".96" height=".96"/><rect class="cls-1" x="6.72" y="17.28" width=".96" height=".96"/><rect class="cls-1" x="6.72" y="16.32" width=".96" height=".96"/><rect class="cls-1" x="6.72" y="15.36" width=".96" height=".96"/><rect class="cls-1" x="6.72" y="14.4" width=".96" height=".96"/><rect class="cls-1" x="6.72" y="13.44" width=".96" height=".96"/><rect class="cls-1" x="6.72" y="12.48" width=".96" height=".96"/><rect class="cls-1" x="6.72" y="11.52" width=".96" height=".96"/><rect class="cls-1" x="6.72" y="10.56" width=".96" height=".96"/><rect class="cls-1" x="6.72" y="9.6" width=".96" height=".96"/><rect class="cls-1" x="6.72" y="8.64" width=".96" height=".96"/><rect class="cls-1" x="6.72" y="7.68" width=".96" height=".96"/><rect class="cls-1" x="6.72" y="6.72" width=".96" height=".96"/><rect class="cls-1" x="6.72" y="5.76" width=".96" height=".96"/><rect class="cls-1" x="6.72" y="4.8" width=".96" height=".96"/><rect class="cls-1" x="6.72" y="3.84" width=".96" height=".96"/><rect class="cls-1" x="6.72" y="2.88" width=".96" height=".96"/><rect class="cls-1" x="5.76" y="20.16" width=".96" height=".96"/><rect class="cls-1" x="5.76" y="19.2" width=".96" height=".96"/><rect class="cls-1" x="5.76" y="18.24" width=".96" height=".96"/><rect class="cls-1" x="5.76" y="17.28" width=".96" height=".96"/><rect class="cls-1" x="5.76" y="16.32" width=".96" height=".96"/><rect class="cls-1" x="5.76" y="15.36" width=".96" height=".96"/><rect class="cls-1" x="5.76" y="14.4" width=".96" height=".96"/><rect class="cls-1" x="5.76" y="13.44" width=".96" height=".96"/><rect class="cls-1" x="5.76" y="12.48" width=".96" height=".96"/><rect class="cls-1" x="5.76" y="11.52" width=".96" height=".96"/><rect class="cls-1" x="5.76" y="10.56" width=".96" height=".96"/><rect class="cls-1" x="5.76" y="9.6" width=".96" height=".96"/><rect class="cls-1" x="5.76" y="8.64" width=".96" height=".96"/><rect class="cls-1" x="5.76" y="7.68" width=".96" height=".96"/><rect class="cls-1" x="5.76" y="6.72" width=".96" height=".96"/><rect class="cls-1" x="5.76" y="5.76" width=".96" height=".96"/><rect class="cls-1" x="5.76" y="4.8" width=".96" height=".96"/><rect class="cls-1" x="5.76" y="3.84" width=".96" height=".96"/></svg>