<?xml version="1.0" encoding="UTF-8"?><svg id="select" xmlns="http://www.w3.org/2000/svg" viewBox="0 0 24 24"><defs><style>.cls-1{fill:#1d1e1f;}</style></defs><g><rect class="cls-1" x="20.2" y="10.56" width=".96" height=".96"/><rect class="cls-1" x="20.2" y="9.6" width=".96" height=".96"/><rect class="cls-1" x="20.2" y="8.64" width=".96" height=".96"/><rect class="cls-1" x="20.2" y="7.68" width=".96" height=".96"/><rect class="cls-1" x="20.2" y="6.72" width=".96" height=".96"/><rect class="cls-1" x="20.2" y="5.76" width=".96" height=".96"/><rect class="cls-1" x="20.2" y="4.8" width=".96" height=".96"/><rect class="cls-1" x="20.2" y="3.84" width=".96" height=".96"/><rect class="cls-1" x="20.2" y="2.88" width=".96" height=".96"/><rect class="cls-1" x="20.2" y="1.92" width=".96" height=".96"/><rect class="cls-1" x="19.24" y="1.92" width=".96" height=".96"/><rect class="cls-1" x="18.28" y="1.92" width=".96" height=".96"/><rect class="cls-1" x="17.32" y="1.92" width=".96" height=".96"/><rect class="cls-1" x="16.36" y="1.92" width=".96" height=".96"/><rect class="cls-1" x="15.4" y="1.92" width=".96" height=".96"/><rect class="cls-1" x="14.44" y="1.92" width=".96" height=".96"/><rect class="cls-1" x="13.48" y="1.92" width=".96" height=".96"/><rect class="cls-1" x="12.52" y="1.92" width=".96" height=".96"/><rect class="cls-1" x="11.56" y="1.92" width=".96" height=".96"/><rect class="cls-1" x="10.6" y="1.92" width=".96" height=".96"/><rect class="cls-1" x="9.64" y="1.92" width=".96" height=".96"/><rect class="cls-1" x="8.68" y="1.92" width=".96" height=".96"/><rect class="cls-1" x="7.72" y="16.32" width=".96" height=".96"/><rect class="cls-1" x="7.72" y="1.92" width=".96" height=".96"/><rect class="cls-1" x="6.76" y="16.32" width=".96" height=".96"/><rect class="cls-1" x="6.76" y="1.92" width=".96" height=".96"/><rect class="cls-1" x="5.8" y="16.32" width=".96" height=".96"/><rect class="cls-1" x="5.8" y="1.92" width=".96" height=".96"/><rect class="cls-1" x="4.84" y="16.32" width=".96" height=".96"/><rect class="cls-1" x="4.84" y="1.92" width=".96" height=".96"/><rect class="cls-1" x="3.88" y="16.32" width=".96" height=".96"/><rect class="cls-1" x="3.88" y="1.92" width=".96" height=".96"/><rect class="cls-1" x="2.92" y="16.32" width=".96" height=".96"/><rect class="cls-1" x="2.92" y="15.36" width=".96" height=".96"/><rect class="cls-1" x="2.92" y="14.4" width=".96" height=".96"/><rect class="cls-1" x="2.92" y="13.44" width=".96" height=".96"/><rect class="cls-1" x="2.92" y="12.48" width=".96" height=".96"/><rect class="cls-1" x="2.92" y="11.52" width=".96" height=".96"/><rect class="cls-1" x="2.92" y="10.56" width=".96" height=".96"/><rect class="cls-1" x="2.92" y="9.6" width=".96" height=".96"/><rect class="cls-1" x="2.92" y="8.64" width=".96" height=".96"/><rect class="cls-1" x="2.92" y="7.68" width=".96" height=".96"/><rect class="cls-1" x="2.92" y="6.72" width=".96" height=".96"/><rect class="cls-1" x="2.92" y="5.76" width=".96" height=".96"/><rect class="cls-1" x="2.92" y="4.8" width=".96" height=".96"/><rect class="cls-1" x="2.92" y="3.84" width=".96" height=".96"/><rect class="cls-1" x="2.92" y="2.88" width=".96" height=".96"/><rect class="cls-1" x="2.92" y="1.92" width=".96" height=".96"/></g><g><rect class="cls-1" x="21.07" y="14.47" width=".96" height=".96" transform="translate(-4.63 13.33) rotate(-31.21)"/><rect class="cls-1" x="20.58" y="13.65" width=".96" height=".96" transform="translate(-4.27 12.95) rotate(-31.21)"/><rect class="cls-1" x="20.25" y="14.96" width=".96" height=".96" transform="translate(-5 12.98) rotate(-31.21)"/><rect class="cls-1" x="19.75" y="14.14" width=".96" height=".96" transform="translate(-4.65 12.6) rotate(-31.21)"/><rect class="cls-1" x="19.26" y="13.32" width=".96" height=".96" transform="translate(-4.3 12.22) rotate(-31.21)"/><rect class="cls-1" x="18.76" y="12.5" width=".96" height=".96" transform="translate(-3.94 11.85) rotate(-31.21)"/><rect class="cls-1" x="19.43" y="15.46" width=".96" height=".96" transform="translate(-5.38 12.62) rotate(-31.21)"/><rect class="cls-1" x="18.93" y="14.64" width=".96" height=".96" transform="translate(-5.03 12.25) rotate(-31.21)"/><rect class="cls-1" x="18.44" y="13.82" width=".96" height=".96" transform="translate(-4.67 11.87) rotate(-31.21)"/><rect class="cls-1" x="17.94" y="13" width=".96" height=".96" transform="translate(-4.32 11.49) rotate(-31.21)"/><rect class="cls-1" x="17.44" y="12.18" width=".96" height=".96" transform="translate(-3.97 11.12) rotate(-31.21)"/><rect class="cls-1" x="16.94" y="11.36" width=".96" height=".96" transform="translate(-3.61 10.74) rotate(-31.21)"/><rect class="cls-1" x="18.61" y="15.96" width=".96" height=".96" transform="translate(-5.76 12.27) rotate(-31.21)"/><rect class="cls-1" x="18.11" y="15.14" width=".96" height=".96" transform="translate(-5.4 11.89) rotate(-31.21)"/><rect class="cls-1" x="17.62" y="14.32" width=".96" height=".96" transform="translate(-5.05 11.52) rotate(-31.21)"/><rect class="cls-1" x="17.12" y="13.5" width=".96" height=".96" transform="translate(-4.7 11.14) rotate(-31.21)"/><rect class="cls-1" x="16.62" y="12.68" width=".96" height=".96" transform="translate(-4.34 10.76) rotate(-31.21)"/><rect class="cls-1" x="16.12" y="11.85" width=".96" height=".96" transform="translate(-3.99 10.39) rotate(-31.21)"/><rect class="cls-1" x="15.63" y="11.03" width=".96" height=".96" transform="translate(-3.63 10.01) rotate(-31.21)"/><rect class="cls-1" x="15.13" y="10.21" width=".96" height=".96" transform="translate(-3.28 9.63) rotate(-31.21)"/><rect class="cls-1" x="17.79" y="16.46" width=".96" height=".96" transform="translate(-6.13 11.92) rotate(-31.21)"/><rect class="cls-1" x="17.29" y="15.64" width=".96" height=".96" transform="translate(-5.78 11.54) rotate(-31.21)"/><rect class="cls-1" x="16.79" y="14.81" width=".96" height=".96" transform="translate(-5.43 11.16) rotate(-31.21)"/><rect class="cls-1" x="16.3" y="13.99" width=".96" height=".96" transform="translate(-5.07 10.79) rotate(-31.21)"/><rect class="cls-1" x="15.8" y="13.17" width=".96" height=".96" transform="translate(-4.72 10.41) rotate(-31.21)"/><rect class="cls-1" x="15.3" y="12.35" width=".96" height=".96" transform="translate(-4.36 10.03) rotate(-31.21)"/><rect class="cls-1" x="14.8" y="11.53" width=".96" height=".96" transform="translate(-4.01 9.66) rotate(-31.21)"/><rect class="cls-1" x="14.31" y="10.71" width=".96" height=".96" transform="translate(-3.66 9.28) rotate(-31.21)"/><rect class="cls-1" x="13.81" y="9.89" width=".96" height=".96" transform="translate(-3.3 8.9) rotate(-31.21)"/><rect class="cls-1" x="13.31" y="9.07" width=".96" height=".96" transform="translate(-2.95 8.53) rotate(-31.21)"/><rect class="cls-1" x="19.45" y="21.06" width=".96" height=".96" transform="translate(-8.28 13.44) rotate(-31.21)"/><rect class="cls-1" x="18.96" y="20.24" width=".96" height=".96" transform="translate(-7.92 13.07) rotate(-31.21)"/><rect class="cls-1" x="18.46" y="19.42" width=".96" height=".96" transform="translate(-7.57 12.69) rotate(-31.21)"/><rect class="cls-1" x="17.96" y="18.6" width=".96" height=".96" transform="translate(-7.22 12.32) rotate(-31.21)"/><rect class="cls-1" x="17.46" y="17.78" width=".96" height=".96" transform="translate(-6.86 11.94) rotate(-31.21)"/><rect class="cls-1" x="16.97" y="16.95" width=".96" height=".96" transform="translate(-6.51 11.56) rotate(-31.21)"/><rect class="cls-1" x="16.47" y="16.13" width=".96" height=".96" transform="translate(-6.16 11.19) rotate(-31.21)"/><rect class="cls-1" x="15.97" y="15.31" width=".96" height=".96" transform="translate(-5.8 10.81) rotate(-31.21)"/><rect class="cls-1" x="15.48" y="14.49" width=".96" height=".96" transform="translate(-5.45 10.43) rotate(-31.21)"/><rect class="cls-1" x="14.98" y="13.67" width=".96" height=".96" transform="translate(-5.09 10.06) rotate(-31.21)"/><rect class="cls-1" x="14.48" y="12.85" width=".96" height=".96" transform="translate(-4.74 9.68) rotate(-31.21)"/><rect class="cls-1" x="13.98" y="12.03" width=".96" height=".96" transform="translate(-4.39 9.3) rotate(-31.21)"/><rect class="cls-1" x="13.49" y="11.21" width=".96" height=".96" transform="translate(-4.03 8.93) rotate(-31.21)"/><rect class="cls-1" x="12.99" y="10.39" width=".96" height=".96" transform="translate(-3.68 8.55) rotate(-31.21)"/><rect class="cls-1" x="12.49" y="9.56" width=".96" height=".96" transform="translate(-3.33 8.17) rotate(-31.21)"/><rect class="cls-1" x="11.99" y="8.74" width=".96" height=".96" transform="translate(-2.97 7.8) rotate(-31.21)"/><rect class="cls-1" x="11.5" y="7.92" width=".96" height=".96" transform="translate(-2.62 7.42) rotate(-31.21)"/><rect class="cls-1" x="18.63" y="21.56" width=".96" height=".96" transform="translate(-8.65 13.09) rotate(-31.21)"/><rect class="cls-1" x="18.14" y="20.74" width=".96" height=".96" transform="translate(-8.3 12.71) rotate(-31.21)"/><rect class="cls-1" x="17.64" y="19.92" width=".96" height=".96" transform="translate(-7.95 12.34) rotate(-31.21)"/><rect class="cls-1" x="17.14" y="19.09" width=".96" height=".96" transform="translate(-7.59 11.96) rotate(-31.21)"/><rect class="cls-1" x="16.64" y="18.27" width=".96" height=".96" transform="translate(-7.24 11.59) rotate(-31.21)"/><rect class="cls-1" x="16.15" y="17.45" width=".96" height=".96" transform="translate(-6.89 11.21) rotate(-31.21)"/><rect class="cls-1" x="15.65" y="16.63" width=".96" height=".96" transform="translate(-6.53 10.83) rotate(-31.21)"/><rect class="cls-1" x="15.15" y="15.81" width=".96" height=".96" transform="translate(-6.18 10.46) rotate(-31.21)"/><rect class="cls-1" x="14.65" y="14.99" width=".96" height=".96" transform="translate(-5.82 10.08) rotate(-31.21)"/><rect class="cls-1" x="14.16" y="14.17" width=".96" height=".96" transform="translate(-5.47 9.7) rotate(-31.21)"/><rect class="cls-1" x="13.66" y="13.35" width=".96" height=".96" transform="translate(-5.12 9.33) rotate(-31.21)"/><rect class="cls-1" x="13.16" y="12.53" width=".96" height=".96" transform="translate(-4.76 8.95) rotate(-31.21)"/><rect class="cls-1" x="12.66" y="11.7" width=".96" height=".96" transform="translate(-4.41 8.57) rotate(-31.21)"/><rect class="cls-1" x="12.17" y="10.88" width=".96" height=".96" transform="translate(-4.06 8.2) rotate(-31.21)"/><rect class="cls-1" x="11.67" y="10.06" width=".96" height=".96" transform="translate(-3.7 7.82) rotate(-31.21)"/><rect class="cls-1" x="11.17" y="9.24" width=".96" height=".96" transform="translate(-3.35 7.44) rotate(-31.21)"/><rect class="cls-1" x="10.68" y="8.42" width=".96" height=".96" transform="translate(-3 7.07) rotate(-31.21)"/><rect class="cls-1" x="10.18" y="7.6" width=".96" height=".96" transform="translate(-2.64 6.69) rotate(-31.21)"/><rect class="cls-1" x="17.81" y="22.05" width=".96" height=".96" transform="translate(-9.03 12.74) rotate(-31.21)"/><rect class="cls-1" x="17.31" y="21.23" width=".96" height=".96" transform="translate(-8.68 12.36) rotate(-31.21)"/><rect class="cls-1" x="16.82" y="20.41" width=".96" height=".96" transform="translate(-8.32 11.98) rotate(-31.21)"/><rect class="cls-1" x="16.32" y="19.59" width=".96" height=".96" transform="translate(-7.97 11.61) rotate(-31.21)"/><rect class="cls-1" x="15.82" y="18.77" width=".96" height=".96" transform="translate(-7.61 11.23) rotate(-31.21)"/><rect class="cls-1" x="15.33" y="17.95" width=".96" height=".96" transform="translate(-7.26 10.86) rotate(-31.21)"/><rect class="cls-1" x="14.83" y="17.13" width=".96" height=".96" transform="translate(-6.91 10.48) rotate(-31.21)"/><rect class="cls-1" x="14.33" y="16.31" width=".96" height=".96" transform="translate(-6.55 10.1) rotate(-31.21)"/><rect class="cls-1" x="13.83" y="15.49" width=".96" height=".96" transform="translate(-6.2 9.73) rotate(-31.21)"/><rect class="cls-1" x="13.34" y="14.66" width=".96" height=".96" transform="translate(-5.85 9.35) rotate(-31.21)"/><rect class="cls-1" x="12.84" y="13.84" width=".96" height=".96" transform="translate(-5.49 8.97) rotate(-31.21)"/><rect class="cls-1" x="12.34" y="13.02" width=".96" height=".96" transform="translate(-5.14 8.6) rotate(-31.21)"/><rect class="cls-1" x="11.84" y="12.2" width=".96" height=".96" transform="translate(-4.79 8.22) rotate(-31.21)"/><rect class="cls-1" x="11.35" y="11.38" width=".96" height=".96" transform="translate(-4.43 7.84) rotate(-31.21)"/><rect class="cls-1" x="10.85" y="10.56" width=".96" height=".96" transform="translate(-4.08 7.47) rotate(-31.21)"/><rect class="cls-1" x="10.35" y="9.74" width=".96" height=".96" transform="translate(-3.73 7.09) rotate(-31.21)"/><rect class="cls-1" x="9.85" y="8.92" width=".96" height=".96" transform="translate(-3.37 6.71) rotate(-31.21)"/><rect class="cls-1" x="14.5" y="18.45" width=".96" height=".96" transform="translate(-7.64 10.5) rotate(-31.21)"/><rect class="cls-1" x="14.01" y="17.63" width=".96" height=".96" transform="translate(-7.28 10.13) rotate(-31.21)"/><rect class="cls-1" x="13.51" y="16.8" width=".96" height=".96" transform="translate(-6.93 9.75) rotate(-31.21)"/><rect class="cls-1" x="13.01" y="15.98" width=".96" height=".96" transform="translate(-6.58 9.37) rotate(-31.21)"/><rect class="cls-1" x="12.51" y="15.16" width=".96" height=".96" transform="translate(-6.22 9) rotate(-31.21)"/><rect class="cls-1" x="12.02" y="14.34" width=".96" height=".96" transform="translate(-5.87 8.62) rotate(-31.21)"/><rect class="cls-1" x="11.52" y="13.52" width=".96" height=".96" transform="translate(-5.52 8.24) rotate(-31.21)"/><rect class="cls-1" x="11.02" y="12.7" width=".96" height=".96" transform="translate(-5.16 7.87) rotate(-31.21)"/><rect class="cls-1" x="10.53" y="11.88" width=".96" height=".96" transform="translate(-4.81 7.49) rotate(-31.21)"/><rect class="cls-1" x="10.03" y="11.06" width=".96" height=".96" transform="translate(-4.46 7.11) rotate(-31.21)"/><rect class="cls-1" x="13.68" y="18.94" width=".96" height=".96" transform="translate(-8.01 10.15) rotate(-31.21)"/><rect class="cls-1" x="13.19" y="18.12" width=".96" height=".96" transform="translate(-7.66 9.77) rotate(-31.21)"/><rect class="cls-1" x="12.69" y="17.3" width=".96" height=".96" transform="translate(-7.31 9.4) rotate(-31.21)"/><rect class="cls-1" x="12.19" y="16.48" width=".96" height=".96" transform="translate(-6.95 9.02) rotate(-31.21)"/><rect class="cls-1" x="11.69" y="15.66" width=".96" height=".96" transform="translate(-6.6 8.64) rotate(-31.21)"/><rect class="cls-1" x="11.2" y="14.84" width=".96" height=".96" transform="translate(-6.25 8.27) rotate(-31.21)"/><rect class="cls-1" x="10.7" y="14.02" width=".96" height=".96" transform="translate(-5.89 7.89) rotate(-31.21)"/><rect class="cls-1" x="10.2" y="13.2" width=".96" height=".96" transform="translate(-5.54 7.51) rotate(-31.21)"/><rect class="cls-1" x="12.86" y="19.44" width=".96" height=".96" transform="translate(-8.39 9.8) rotate(-31.21)"/><rect class="cls-1" x="12.36" y="18.62" width=".96" height=".96" transform="translate(-8.04 9.42) rotate(-31.21)"/><rect class="cls-1" x="11.87" y="17.8" width=".96" height=".96" transform="translate(-7.68 9.04) rotate(-31.21)"/><rect class="cls-1" x="11.37" y="16.98" width=".96" height=".96" transform="translate(-7.33 8.67) rotate(-31.21)"/><rect class="cls-1" x="10.87" y="16.16" width=".96" height=".96" transform="translate(-6.98 8.29) rotate(-31.21)"/><rect class="cls-1" x="10.38" y="15.34" width=".96" height=".96" transform="translate(-6.62 7.91) rotate(-31.21)"/><rect class="cls-1" x="12.04" y="19.94" width=".96" height=".96" transform="translate(-8.77 9.44) rotate(-31.21)"/><rect class="cls-1" x="11.54" y="19.12" width=".96" height=".96" transform="translate(-8.41 9.07) rotate(-31.21)"/><rect class="cls-1" x="11.05" y="18.3" width=".96" height=".96" transform="translate(-8.06 8.69) rotate(-31.21)"/><rect class="cls-1" x="10.55" y="17.48" width=".96" height=".96" transform="translate(-7.71 8.31) rotate(-31.21)"/><rect class="cls-1" x="11.22" y="20.44" width=".96" height=".96" transform="translate(-9.14 9.09) rotate(-31.21)"/><rect class="cls-1" x="10.72" y="19.62" width=".96" height=".96" transform="translate(-8.79 8.71) rotate(-31.21)"/></g></svg>