<?xml version="1.0" encoding="UTF-8"?><svg id="eraser" xmlns="http://www.w3.org/2000/svg" viewBox="0 0 24 24"><defs><style>.cls-1{fill:#1d1e1f;}</style></defs><g><rect class="cls-1" x="11.86" y="17.49" width=".96" height=".96" transform="translate(-9.09 13.99) rotate(-45)"/><rect class="cls-1" x="12.54" y="16.81" width=".96" height=".96" transform="translate(-8.41 14.27) rotate(-45)"/><rect class="cls-1" x="13.22" y="16.13" width=".96" height=".96" transform="translate(-7.73 14.55) rotate(-45)"/><rect class="cls-1" x="13.9" y="15.45" width=".96" height=".96" transform="translate(-7.06 14.83) rotate(-45)"/><rect class="cls-1" x="14.57" y="14.77" width=".96" height=".96" transform="translate(-6.38 15.11) rotate(-45)"/><rect class="cls-1" x="15.25" y="14.09" width=".96" height=".96" transform="translate(-5.7 15.39) rotate(-45)"/><rect class="cls-1" x="15.93" y="13.42" width=".96" height=".96" transform="translate(-5.02 15.68) rotate(-45)"/><rect class="cls-1" x="16.61" y="12.74" width=".96" height=".96" transform="translate(-4.34 15.96) rotate(-45)"/><rect class="cls-1" x="17.29" y="12.06" width=".96" height=".96" transform="translate(-3.66 16.24) rotate(-45)"/><rect class="cls-1" x="17.97" y="11.38" width=".96" height=".96" transform="translate(-2.98 16.52) rotate(-45)"/><rect class="cls-1" x="18.65" y="10.7" width=".96" height=".96" transform="translate(-2.3 16.8) rotate(-45)"/><rect class="cls-1" x="19.33" y="10.02" width=".96" height=".96" transform="translate(-1.62 17.08) rotate(-45)"/><rect class="cls-1" x="20.01" y="9.34" width=".96" height=".96" transform="translate(-.95 17.36) rotate(-45)"/><rect class="cls-1" x="20.68" y="8.66" width=".96" height=".96" transform="translate(-.27 17.64) rotate(-45)"/><rect class="cls-1" x="10.5" y="17.49" width=".96" height=".96" transform="translate(-9.49 13.03) rotate(-45)"/><rect class="cls-1" x="11.18" y="16.81" width=".96" height=".96" transform="translate(-8.81 13.31) rotate(-45)"/><rect class="cls-1" x="11.86" y="16.13" width=".96" height=".96" transform="translate(-8.13 13.59) rotate(-45)"/><rect class="cls-1" x="12.54" y="15.45" width=".96" height=".96" transform="translate(-7.45 13.87) rotate(-45)"/><rect class="cls-1" x="13.22" y="14.77" width=".96" height=".96" transform="translate(-6.77 14.15) rotate(-45)"/><rect class="cls-1" x="13.9" y="14.09" width=".96" height=".96" transform="translate(-6.1 14.43) rotate(-45)"/><rect class="cls-1" x="14.57" y="13.42" width=".96" height=".96" transform="translate(-5.42 14.72) rotate(-45)"/><rect class="cls-1" x="15.25" y="12.74" width=".96" height=".96" transform="translate(-4.74 15) rotate(-45)"/><rect class="cls-1" x="15.93" y="12.06" width=".96" height=".96" transform="translate(-4.06 15.28) rotate(-45)"/><rect class="cls-1" x="16.61" y="11.38" width=".96" height=".96" transform="translate(-3.38 15.56) rotate(-45)"/><rect class="cls-1" x="17.29" y="10.7" width=".96" height=".96" transform="translate(-2.7 15.84) rotate(-45)"/><rect class="cls-1" x="17.97" y="10.02" width=".96" height=".96" transform="translate(-2.02 16.12) rotate(-45)"/><rect class="cls-1" x="18.65" y="9.34" width=".96" height=".96" transform="translate(-1.34 16.4) rotate(-45)"/><rect class="cls-1" x="19.33" y="8.66" width=".96" height=".96" transform="translate(-.66 16.68) rotate(-45)"/><rect class="cls-1" x="20.01" y="7.99" width=".96" height=".96" transform="translate(.01 16.96) rotate(-45)"/><rect class="cls-1" x="9.14" y="17.49" width=".96" height=".96" transform="translate(-9.89 12.07) rotate(-45)"/><rect class="cls-1" x="9.82" y="16.81" width=".96" height=".96" transform="translate(-9.21 12.35) rotate(-45)"/><rect class="cls-1" x="10.5" y="16.13" width=".96" height=".96" transform="translate(-8.53 12.63) rotate(-45)"/><rect class="cls-1" x="11.18" y="15.45" width=".96" height=".96" transform="translate(-7.85 12.91) rotate(-45)"/><rect class="cls-1" x="11.86" y="14.77" width=".96" height=".96" transform="translate(-7.17 13.19) rotate(-45)"/><rect class="cls-1" x="12.54" y="14.09" width=".96" height=".96" transform="translate(-6.49 13.47) rotate(-45)"/><rect class="cls-1" x="13.22" y="13.42" width=".96" height=".96" transform="translate(-5.81 13.76) rotate(-45)"/><rect class="cls-1" x="13.9" y="12.74" width=".96" height=".96" transform="translate(-5.14 14.04) rotate(-45)"/><rect class="cls-1" x="14.57" y="12.06" width=".96" height=".96" transform="translate(-4.46 14.32) rotate(-45)"/><rect class="cls-1" x="15.25" y="11.38" width=".96" height=".96" transform="translate(-3.78 14.6) rotate(-45)"/><rect class="cls-1" x="15.93" y="10.7" width=".96" height=".96" transform="translate(-3.1 14.88) rotate(-45)"/><rect class="cls-1" x="16.61" y="10.02" width=".96" height=".96" transform="translate(-2.42 15.16) rotate(-45)"/><rect class="cls-1" x="17.29" y="9.34" width=".96" height=".96" transform="translate(-1.74 15.44) rotate(-45)"/><rect class="cls-1" x="17.97" y="8.66" width=".96" height=".96" transform="translate(-1.06 15.72) rotate(-45)"/><rect class="cls-1" x="18.65" y="7.99" width=".96" height=".96" transform="translate(-.38 16) rotate(-45)"/><rect class="cls-1" x="19.33" y="7.31" width=".96" height=".96" transform="translate(.3 16.29) rotate(-45)"/><rect class="cls-1" x="7.79" y="17.49" width=".96" height=".96" transform="translate(-10.28 11.11) rotate(-45)"/><rect class="cls-1" x="8.47" y="16.81" width=".96" height=".96" transform="translate(-9.61 11.39) rotate(-45)"/><rect class="cls-1" x="9.82" y="15.45" width=".96" height=".96" transform="translate(-8.25 11.95) rotate(-45)"/><rect class="cls-1" x="10.5" y="14.77" width=".96" height=".96" transform="translate(-7.57 12.23) rotate(-45)"/><rect class="cls-1" x="11.18" y="14.09" width=".96" height=".96" transform="translate(-6.89 12.51) rotate(-45)"/><rect class="cls-1" x="11.86" y="13.42" width=".96" height=".96" transform="translate(-6.21 12.8) rotate(-45)"/><rect class="cls-1" x="12.54" y="12.74" width=".96" height=".96" transform="translate(-5.53 13.08) rotate(-45)"/><rect class="cls-1" x="13.22" y="12.06" width=".96" height=".96" transform="translate(-4.85 13.36) rotate(-45)"/><rect class="cls-1" x="13.9" y="11.38" width=".96" height=".96" transform="translate(-4.18 13.64) rotate(-45)"/><rect class="cls-1" x="14.57" y="10.7" width=".96" height=".96" transform="translate(-3.5 13.92) rotate(-45)"/><rect class="cls-1" x="15.25" y="10.02" width=".96" height=".96" transform="translate(-2.82 14.2) rotate(-45)"/><rect class="cls-1" x="15.93" y="9.34" width=".96" height=".96" transform="translate(-2.14 14.48) rotate(-45)"/><rect class="cls-1" x="16.61" y="8.66" width=".96" height=".96" transform="translate(-1.46 14.76) rotate(-45)"/><rect class="cls-1" x="17.29" y="7.99" width=".96" height=".96" transform="translate(-.78 15.04) rotate(-45)"/><rect class="cls-1" x="17.97" y="7.31" width=".96" height=".96" transform="translate(-.1 15.33) rotate(-45)"/><rect class="cls-1" x="18.65" y="6.63" width=".96" height=".96" transform="translate(.58 15.61) rotate(-45)"/><rect class="cls-1" x="6.43" y="17.49" width=".96" height=".96" transform="translate(-10.68 10.15) rotate(-45)"/><rect class="cls-1" x="7.11" y="16.81" width=".96" height=".96" transform="translate(-10 10.43) rotate(-45)"/><rect class="cls-1" x="9.14" y="14.77" width=".96" height=".96" transform="translate(-7.97 11.27) rotate(-45)"/><rect class="cls-1" x="9.82" y="14.09" width=".96" height=".96" transform="translate(-7.29 11.55) rotate(-45)"/><rect class="cls-1" x="10.5" y="13.42" width=".96" height=".96" transform="translate(-6.61 11.84) rotate(-45)"/><rect class="cls-1" x="11.18" y="12.74" width=".96" height=".96" transform="translate(-5.93 12.12) rotate(-45)"/><rect class="cls-1" x="11.86" y="12.06" width=".96" height=".96" transform="translate(-5.25 12.4) rotate(-45)"/><rect class="cls-1" x="12.54" y="11.38" width=".96" height=".96" transform="translate(-4.57 12.68) rotate(-45)"/><rect class="cls-1" x="13.22" y="10.7" width=".96" height=".96" transform="translate(-3.89 12.96) rotate(-45)"/><rect class="cls-1" x="13.9" y="10.02" width=".96" height=".96" transform="translate(-3.22 13.24) rotate(-45)"/><rect class="cls-1" x="14.57" y="9.34" width=".96" height=".96" transform="translate(-2.54 13.52) rotate(-45)"/><rect class="cls-1" x="15.25" y="8.66" width=".96" height=".96" transform="translate(-1.86 13.8) rotate(-45)"/><rect class="cls-1" x="15.93" y="7.99" width=".96" height=".96" transform="translate(-1.18 14.08) rotate(-45)"/><rect class="cls-1" x="16.61" y="7.31" width=".96" height=".96" transform="translate(-.5 14.37) rotate(-45)"/><rect class="cls-1" x="17.29" y="6.63" width=".96" height=".96" transform="translate(.18 14.65) rotate(-45)"/><rect class="cls-1" x="17.97" y="5.95" width=".96" height=".96" transform="translate(.86 14.93) rotate(-45)"/><rect class="cls-1" x="5.75" y="16.81" width=".96" height=".96" transform="translate(-10.4 9.47) rotate(-45)"/><rect class="cls-1" x="8.47" y="14.09" width=".96" height=".96" transform="translate(-7.69 10.59) rotate(-45)"/><rect class="cls-1" x="9.14" y="13.42" width=".96" height=".96" transform="translate(-7.01 10.88) rotate(-45)"/><rect class="cls-1" x="9.82" y="12.74" width=".96" height=".96" transform="translate(-6.33 11.16) rotate(-45)"/><rect class="cls-1" x="10.5" y="12.06" width=".96" height=".96" transform="translate(-5.65 11.44) rotate(-45)"/><rect class="cls-1" x="11.18" y="11.38" width=".96" height=".96" transform="translate(-4.97 11.72) rotate(-45)"/><rect class="cls-1" x="11.86" y="10.7" width=".96" height=".96" transform="translate(-4.29 12) rotate(-45)"/><rect class="cls-1" x="12.54" y="10.02" width=".96" height=".96" transform="translate(-3.61 12.28) rotate(-45)"/><rect class="cls-1" x="13.22" y="9.34" width=".96" height=".96" transform="translate(-2.93 12.56) rotate(-45)"/><rect class="cls-1" x="13.9" y="8.66" width=".96" height=".96" transform="translate(-2.26 12.84) rotate(-45)"/><rect class="cls-1" x="14.57" y="7.99" width=".96" height=".96" transform="translate(-1.58 13.12) rotate(-45)"/><rect class="cls-1" x="15.25" y="7.31" width=".96" height=".96" transform="translate(-.9 13.41) rotate(-45)"/><rect class="cls-1" x="15.93" y="6.63" width=".96" height=".96" transform="translate(-.22 13.69) rotate(-45)"/><rect class="cls-1" x="16.61" y="5.95" width=".96" height=".96" transform="translate(.46 13.97) rotate(-45)"/><rect class="cls-1" x="17.29" y="5.27" width=".96" height=".96" transform="translate(1.14 14.25) rotate(-45)"/><rect class="cls-1" x="5.07" y="16.13" width=".96" height=".96" transform="translate(-10.12 8.79) rotate(-45)"/><rect class="cls-1" x="7.79" y="13.42" width=".96" height=".96" transform="translate(-7.4 9.92) rotate(-45)"/><rect class="cls-1" x="8.47" y="12.74" width=".96" height=".96" transform="translate(-6.73 10.2) rotate(-45)"/><rect class="cls-1" x="9.14" y="12.06" width=".96" height=".96" transform="translate(-6.05 10.48) rotate(-45)"/><rect class="cls-1" x="9.82" y="11.38" width=".96" height=".96" transform="translate(-5.37 10.76) rotate(-45)"/><rect class="cls-1" x="10.5" y="10.7" width=".96" height=".96" transform="translate(-4.69 11.04) rotate(-45)"/><rect class="cls-1" x="11.18" y="10.02" width=".96" height=".96" transform="translate(-4.01 11.32) rotate(-45)"/><rect class="cls-1" x="11.86" y="9.34" width=".96" height=".96" transform="translate(-3.33 11.6) rotate(-45)"/><rect class="cls-1" x="12.54" y="8.66" width=".96" height=".96" transform="translate(-2.65 11.88) rotate(-45)"/><rect class="cls-1" x="13.22" y="7.99" width=".96" height=".96" transform="translate(-1.97 12.16) rotate(-45)"/><rect class="cls-1" x="13.9" y="7.31" width=".96" height=".96" transform="translate(-1.3 12.45) rotate(-45)"/><rect class="cls-1" x="14.57" y="6.63" width=".96" height=".96" transform="translate(-.62 12.73) rotate(-45)"/><rect class="cls-1" x="15.25" y="5.95" width=".96" height=".96" transform="translate(.06 13.01) rotate(-45)"/><rect class="cls-1" x="15.93" y="5.27" width=".96" height=".96" transform="translate(.74 13.29) rotate(-45)"/><rect class="cls-1" x="16.61" y="4.59" width=".96" height=".96" transform="translate(1.42 13.57) rotate(-45)"/><rect class="cls-1" x="4.39" y="15.45" width=".96" height=".96" transform="translate(-9.84 8.11) rotate(-45)"/><rect class="cls-1" x="7.11" y="12.74" width=".96" height=".96" transform="translate(-7.12 9.24) rotate(-45)"/><rect class="cls-1" x="7.79" y="12.06" width=".96" height=".96" transform="translate(-6.44 9.52) rotate(-45)"/><rect class="cls-1" x="8.47" y="11.38" width=".96" height=".96" transform="translate(-5.77 9.8) rotate(-45)"/><rect class="cls-1" x="9.14" y="10.7" width=".96" height=".96" transform="translate(-5.09 10.08) rotate(-45)"/><rect class="cls-1" x="9.82" y="10.02" width=".96" height=".96" transform="translate(-4.41 10.36) rotate(-45)"/><rect class="cls-1" x="10.5" y="9.34" width=".96" height=".96" transform="translate(-3.73 10.64) rotate(-45)"/><rect class="cls-1" x="11.18" y="8.66" width=".96" height=".96" transform="translate(-3.05 10.92) rotate(-45)"/><rect class="cls-1" x="11.86" y="7.99" width=".96" height=".96" transform="translate(-2.37 11.2) rotate(-45)"/><rect class="cls-1" x="12.54" y="7.31" width=".96" height=".96" transform="translate(-1.69 11.49) rotate(-45)"/><rect class="cls-1" x="13.22" y="6.63" width=".96" height=".96" transform="translate(-1.01 11.77) rotate(-45)"/><rect class="cls-1" x="13.9" y="5.95" width=".96" height=".96" transform="translate(-.34 12.05) rotate(-45)"/><rect class="cls-1" x="14.57" y="5.27" width=".96" height=".96" transform="translate(.34 12.33) rotate(-45)"/><rect class="cls-1" x="15.25" y="4.59" width=".96" height=".96" transform="translate(1.02 12.61) rotate(-45)"/><rect class="cls-1" x="15.93" y="3.91" width=".96" height=".96" transform="translate(1.7 12.89) rotate(-45)"/><rect class="cls-1" x="3.71" y="14.77" width=".96" height=".96" transform="translate(-9.56 7.43) rotate(-45)"/><rect class="cls-1" x="6.43" y="12.06" width=".96" height=".96" transform="translate(-6.84 8.56) rotate(-45)"/><rect class="cls-1" x="7.11" y="11.38" width=".96" height=".96" transform="translate(-6.16 8.84) rotate(-45)"/><rect class="cls-1" x="7.79" y="10.7" width=".96" height=".96" transform="translate(-5.48 9.12) rotate(-45)"/><rect class="cls-1" x="8.47" y="10.02" width=".96" height=".96" transform="translate(-4.81 9.4) rotate(-45)"/><rect class="cls-1" x="9.14" y="9.34" width=".96" height=".96" transform="translate(-4.13 9.68) rotate(-45)"/><rect class="cls-1" x="9.82" y="8.66" width=".96" height=".96" transform="translate(-3.45 9.96) rotate(-45)"/><rect class="cls-1" x="10.5" y="7.99" width=".96" height=".96" transform="translate(-2.77 10.24) rotate(-45)"/><rect class="cls-1" x="11.18" y="7.31" width=".96" height=".96" transform="translate(-2.09 10.53) rotate(-45)"/><rect class="cls-1" x="11.86" y="6.63" width=".96" height=".96" transform="translate(-1.41 10.81) rotate(-45)"/><rect class="cls-1" x="12.54" y="5.95" width=".96" height=".96" transform="translate(-.73 11.09) rotate(-45)"/><rect class="cls-1" x="13.22" y="5.27" width=".96" height=".96" transform="translate(-.05 11.37) rotate(-45)"/><rect class="cls-1" x="13.9" y="4.59" width=".96" height=".96" transform="translate(.62 11.65) rotate(-45)"/><rect class="cls-1" x="14.57" y="3.91" width=".96" height=".96" transform="translate(1.3 11.93) rotate(-45)"/><rect class="cls-1" x="15.25" y="3.23" width=".96" height=".96" transform="translate(1.98 12.21) rotate(-45)"/><rect class="cls-1" x="3.03" y="14.09" width=".96" height=".96" transform="translate(-9.28 6.75) rotate(-45)"/><rect class="cls-1" x="3.71" y="13.42" width=".96" height=".96" transform="translate(-8.6 7.04) rotate(-45)"/><rect class="cls-1" x="4.39" y="12.74" width=".96" height=".96" transform="translate(-7.92 7.32) rotate(-45)"/><rect class="cls-1" x="5.07" y="12.06" width=".96" height=".96" transform="translate(-7.24 7.6) rotate(-45)"/><rect class="cls-1" x="5.75" y="11.38" width=".96" height=".96" transform="translate(-6.56 7.88) rotate(-45)"/><rect class="cls-1" x="6.43" y="10.7" width=".96" height=".96" transform="translate(-5.88 8.16) rotate(-45)"/><rect class="cls-1" x="7.11" y="10.02" width=".96" height=".96" transform="translate(-5.2 8.44) rotate(-45)"/><rect class="cls-1" x="7.79" y="9.34" width=".96" height=".96" transform="translate(-4.52 8.72) rotate(-45)"/><rect class="cls-1" x="8.47" y="8.66" width=".96" height=".96" transform="translate(-3.85 9) rotate(-45)"/><rect class="cls-1" x="9.14" y="7.99" width=".96" height=".96" transform="translate(-3.17 9.28) rotate(-45)"/><rect class="cls-1" x="9.82" y="7.31" width=".96" height=".96" transform="translate(-2.49 9.57) rotate(-45)"/><rect class="cls-1" x="10.5" y="6.63" width=".96" height=".96" transform="translate(-1.81 9.85) rotate(-45)"/><rect class="cls-1" x="11.18" y="5.95" width=".96" height=".96" transform="translate(-1.13 10.13) rotate(-45)"/><rect class="cls-1" x="11.86" y="5.27" width=".96" height=".96" transform="translate(-.45 10.41) rotate(-45)"/><rect class="cls-1" x="12.54" y="4.59" width=".96" height=".96" transform="translate(.23 10.69) rotate(-45)"/><rect class="cls-1" x="13.22" y="3.91" width=".96" height=".96" transform="translate(.91 10.97) rotate(-45)"/><rect class="cls-1" x="13.9" y="3.23" width=".96" height=".96" transform="translate(1.58 11.25) rotate(-45)"/><rect class="cls-1" x="14.57" y="2.55" width=".96" height=".96" transform="translate(2.26 11.53) rotate(-45)"/><rect class="cls-1" x="5.07" y="10.7" width=".96" height=".96" transform="translate(-6.28 7.2) rotate(-45)"/><rect class="cls-1" x="5.75" y="10.02" width=".96" height=".96" transform="translate(-5.6 7.48) rotate(-45)"/><rect class="cls-1" x="6.43" y="9.34" width=".96" height=".96" transform="translate(-4.92 7.76) rotate(-45)"/><rect class="cls-1" x="7.11" y="8.66" width=".96" height=".96" transform="translate(-4.24 8.04) rotate(-45)"/><rect class="cls-1" x="7.79" y="7.99" width=".96" height=".96" transform="translate(-3.56 8.32) rotate(-45)"/><rect class="cls-1" x="8.47" y="7.31" width=".96" height=".96" transform="translate(-2.89 8.61) rotate(-45)"/><rect class="cls-1" x="9.14" y="6.63" width=".96" height=".96" transform="translate(-2.21 8.89) rotate(-45)"/><rect class="cls-1" x="9.82" y="5.95" width=".96" height=".96" transform="translate(-1.53 9.17) rotate(-45)"/><rect class="cls-1" x="10.5" y="5.27" width=".96" height=".96" transform="translate(-.85 9.45) rotate(-45)"/><rect class="cls-1" x="11.18" y="4.59" width=".96" height=".96" transform="translate(-.17 9.73) rotate(-45)"/><rect class="cls-1" x="11.86" y="3.91" width=".96" height=".96" transform="translate(.51 10.01) rotate(-45)"/><rect class="cls-1" x="12.54" y="3.23" width=".96" height=".96" transform="translate(1.19 10.29) rotate(-45)"/><rect class="cls-1" x="13.22" y="2.55" width=".96" height=".96" transform="translate(1.87 10.57) rotate(-45)"/><rect class="cls-1" x="13.9" y="1.88" width=".96" height=".96" transform="translate(2.54 10.86) rotate(-45)"/></g><g><rect class="cls-1" x="20.16" y="21.12" width=".96" height=".96"/><rect class="cls-1" x="19.2" y="21.12" width=".96" height=".96"/><rect class="cls-1" x="18.24" y="21.12" width=".96" height=".96"/><rect class="cls-1" x="17.28" y="21.12" width=".96" height=".96"/><rect class="cls-1" x="15.36" y="21.12" width=".96" height=".96"/><rect class="cls-1" x="16.32" y="21.12" width=".96" height=".96"/><rect class="cls-1" x="13.44" y="21.12" width=".96" height=".96"/><rect class="cls-1" x="14.4" y="21.12" width=".96" height=".96"/><rect class="cls-1" x="10.56" y="21.12" width=".96" height=".96"/><rect class="cls-1" x="11.52" y="21.12" width=".96" height=".96"/><rect class="cls-1" x="12.48" y="21.12" width=".96" height=".96"/><rect class="cls-1" x="8.64" y="21.12" width=".96" height=".96"/><rect class="cls-1" x="9.6" y="21.12" width=".96" height=".96"/><rect class="cls-1" x="5.76" y="21.12" width=".96" height=".96"/><rect class="cls-1" x="6.72" y="21.12" width=".96" height=".96"/><rect class="cls-1" x="2.88" y="21.12" width=".96" height=".96"/><rect class="cls-1" x="4.8" y="21.12" width=".96" height=".96"/><rect class="cls-1" x="3.84" y="21.12" width=".96" height=".96"/><rect class="cls-1" x="7.68" y="21.12" width=".96" height=".96"/></g></svg>