<?xml version="1.0" encoding="utf-8"?>
<!-- Generator: Adobe Illustrator 26.1.0, SVG Export Plug-In . SVG Version: 6.00 Build 0)  -->
<svg version="1.1" id="레이어_1" xmlns="http://www.w3.org/2000/svg" xmlns:xlink="http://www.w3.org/1999/xlink" x="0px"
	 y="0px" viewBox="0 0 32 32" style="enable-background:new 0 0 32 32;" xml:space="preserve">
<style type="text/css">
	.st0{fill:#FFBFFF;}
</style>
<g>
	<g id="XMLID_00000007398439378507797650000000931537464656783803_">
		<g>
			<rect x="31.03" y="29.09" class="st0" width="0.96" height="0.97"/>
			<rect x="31.03" y="28.12" class="st0" width="0.96" height="0.97"/>
			<rect x="31.03" y="27.15" class="st0" width="0.96" height="0.97"/>
			<rect x="31.03" y="26.18" class="st0" width="0.96" height="0.97"/>
			<rect x="31.03" y="25.21" class="st0" width="0.96" height="0.97"/>
			<rect x="31.03" y="24.24" class="st0" width="0.96" height="0.97"/>
			<rect x="31.03" y="23.27" class="st0" width="0.96" height="0.97"/>
			<rect x="31.03" y="22.3" class="st0" width="0.96" height="0.97"/>
			<rect x="31.03" y="21.34" class="st0" width="0.96" height="0.96"/>
			<rect x="31.03" y="20.37" class="st0" width="0.96" height="0.97"/>
			<rect x="31.03" y="19.4" class="st0" width="0.96" height="0.97"/>
			<rect x="31.03" y="18.43" class="st0" width="0.96" height="0.97"/>
			<rect x="31.03" y="17.46" class="st0" width="0.96" height="0.97"/>
			<rect x="31.03" y="16.49" class="st0" width="0.96" height="0.97"/>
			<rect x="31.03" y="15.52" class="st0" width="0.96" height="0.97"/>
			<rect x="31.03" y="14.55" class="st0" width="0.96" height="0.97"/>
			<rect x="31.03" y="13.58" class="st0" width="0.96" height="0.97"/>
			<rect x="31.03" y="12.61" class="st0" width="0.96" height="0.97"/>
			<rect x="31.03" y="11.64" class="st0" width="0.96" height="0.97"/>
			<rect x="31.03" y="10.67" class="st0" width="0.96" height="0.97"/>
			<rect x="31.03" y="9.7" class="st0" width="0.96" height="0.97"/>
			<rect x="31.03" y="8.73" class="st0" width="0.96" height="0.97"/>
			<rect x="31.03" y="7.76" class="st0" width="0.96" height="0.97"/>
			<rect x="31.03" y="6.79" class="st0" width="0.96" height="0.97"/>
			<rect x="31.03" y="5.82" class="st0" width="0.96" height="0.97"/>
			<rect x="30.06" y="30.06" class="st0" width="0.97" height="0.97"/>
			<rect x="30.06" y="29.09" class="st0" width="0.97" height="0.97"/>
			<rect x="30.06" y="28.12" class="st0" width="0.97" height="0.97"/>
			<rect x="30.06" y="27.15" class="st0" width="0.97" height="0.97"/>
			<rect x="30.06" y="26.18" class="st0" width="0.97" height="0.97"/>
			<rect x="30.06" y="25.21" class="st0" width="0.97" height="0.97"/>
			<rect x="30.06" y="24.24" class="st0" width="0.97" height="0.97"/>
			<rect x="30.06" y="23.27" class="st0" width="0.97" height="0.97"/>
			<rect x="30.06" y="22.3" class="st0" width="0.97" height="0.97"/>
			<rect x="30.06" y="21.34" class="st0" width="0.97" height="0.96"/>
			<rect x="30.06" y="20.37" class="st0" width="0.97" height="0.97"/>
			<rect x="30.06" y="19.4" class="st0" width="0.97" height="0.97"/>
			<rect x="30.06" y="18.43" class="st0" width="0.97" height="0.97"/>
			<rect x="30.06" y="17.46" class="st0" width="0.97" height="0.97"/>
			<rect x="30.06" y="16.49" class="st0" width="0.97" height="0.97"/>
			<rect x="30.06" y="15.52" class="st0" width="0.97" height="0.97"/>
			<rect x="30.06" y="14.55" class="st0" width="0.97" height="0.97"/>
			<rect x="30.06" y="13.58" class="st0" width="0.97" height="0.97"/>
			<rect x="30.06" y="12.61" class="st0" width="0.97" height="0.97"/>
			<rect x="30.06" y="11.64" class="st0" width="0.97" height="0.97"/>
			<rect x="30.06" y="10.67" class="st0" width="0.97" height="0.97"/>
			<rect x="30.06" y="9.7" class="st0" width="0.97" height="0.97"/>
			<rect x="30.06" y="8.73" class="st0" width="0.97" height="0.97"/>
			<rect x="30.06" y="7.76" class="st0" width="0.97" height="0.97"/>
			<rect x="30.06" y="6.79" class="st0" width="0.97" height="0.97"/>
			<rect x="30.06" y="5.82" class="st0" width="0.97" height="0.97"/>
			<rect x="29.09" y="31.03" class="st0" width="0.97" height="0.97"/>
			<rect x="29.09" y="30.06" class="st0" width="0.97" height="0.97"/>
			<rect x="29.09" y="29.09" class="st0" width="0.97" height="0.97"/>
			<rect x="29.09" y="6.79" class="st0" width="0.97" height="0.97"/>
			<rect x="29.09" y="5.82" class="st0" width="0.97" height="0.97"/>
			<rect x="28.12" y="31.03" class="st0" width="0.97" height="0.97"/>
			<rect x="28.12" y="30.06" class="st0" width="0.97" height="0.97"/>
			<rect x="28.12" y="6.79" class="st0" width="0.97" height="0.97"/>
			<rect x="28.12" y="5.82" class="st0" width="0.97" height="0.97"/>
			<rect x="27.15" y="31.03" class="st0" width="0.97" height="0.97"/>
			<rect x="27.15" y="30.06" class="st0" width="0.97" height="0.97"/>
			<rect x="27.15" y="6.79" class="st0" width="0.97" height="0.97"/>
			<rect x="27.15" y="5.82" class="st0" width="0.97" height="0.97"/>
			<rect x="26.18" y="31.03" class="st0" width="0.97" height="0.97"/>
			<rect x="26.18" y="30.06" class="st0" width="0.97" height="0.97"/>
			<rect x="26.18" y="6.79" class="st0" width="0.97" height="0.97"/>
			<rect x="26.18" y="5.82" class="st0" width="0.97" height="0.97"/>
			<rect x="25.21" y="31.03" class="st0" width="0.97" height="0.97"/>
			<rect x="25.21" y="30.06" class="st0" width="0.97" height="0.97"/>
			<rect x="25.21" y="6.79" class="st0" width="0.97" height="0.97"/>
			<rect x="25.21" y="5.82" class="st0" width="0.97" height="0.97"/>
			<rect x="24.24" y="31.03" class="st0" width="0.97" height="0.97"/>
			<rect x="24.24" y="30.06" class="st0" width="0.97" height="0.97"/>
			<rect x="24.24" y="6.79" class="st0" width="0.97" height="0.97"/>
			<rect x="24.24" y="5.82" class="st0" width="0.97" height="0.97"/>
			<rect x="23.27" y="31.03" class="st0" width="0.97" height="0.97"/>
			<rect x="23.27" y="30.06" class="st0" width="0.97" height="0.97"/>
			<rect x="23.27" y="6.79" class="st0" width="0.97" height="0.97"/>
			<rect x="23.27" y="5.82" class="st0" width="0.97" height="0.97"/>
			<rect x="22.3" y="31.03" class="st0" width="0.97" height="0.97"/>
			<rect x="22.3" y="30.06" class="st0" width="0.97" height="0.97"/>
			<rect x="22.3" y="6.79" class="st0" width="0.97" height="0.97"/>
			<rect x="22.3" y="5.82" class="st0" width="0.97" height="0.97"/>
			<rect x="21.33" y="31.03" class="st0" width="0.97" height="0.97"/>
			<rect x="21.33" y="30.06" class="st0" width="0.97" height="0.97"/>
			<rect x="21.33" y="6.79" class="st0" width="0.97" height="0.97"/>
			<rect x="21.33" y="5.82" class="st0" width="0.97" height="0.97"/>
			<rect x="20.36" y="31.03" class="st0" width="0.97" height="0.97"/>
			<rect x="20.36" y="30.06" class="st0" width="0.97" height="0.97"/>
			<rect x="20.36" y="6.79" class="st0" width="0.97" height="0.97"/>
			<rect x="20.36" y="5.82" class="st0" width="0.97" height="0.97"/>
			<rect x="19.39" y="31.03" class="st0" width="0.97" height="0.97"/>
			<rect x="19.39" y="30.06" class="st0" width="0.97" height="0.97"/>
			<rect x="19.39" y="6.79" class="st0" width="0.97" height="0.97"/>
			<rect x="19.39" y="5.82" class="st0" width="0.97" height="0.97"/>
			<rect x="18.42" y="31.03" class="st0" width="0.97" height="0.97"/>
			<rect x="18.42" y="30.06" class="st0" width="0.97" height="0.97"/>
			<rect x="18.42" y="6.79" class="st0" width="0.97" height="0.97"/>
			<rect x="18.42" y="5.82" class="st0" width="0.97" height="0.97"/>
			<rect x="17.45" y="31.03" class="st0" width="0.97" height="0.97"/>
			<rect x="17.45" y="30.06" class="st0" width="0.97" height="0.97"/>
			<rect x="17.45" y="6.79" class="st0" width="0.97" height="0.97"/>
			<rect x="17.45" y="5.82" class="st0" width="0.97" height="0.97"/>
			<rect x="16.48" y="31.03" class="st0" width="0.97" height="0.97"/>
			<rect x="16.48" y="30.06" class="st0" width="0.97" height="0.97"/>
			<rect x="16.48" y="6.79" class="st0" width="0.97" height="0.97"/>
			<rect x="16.48" y="5.82" class="st0" width="0.97" height="0.97"/>
			<rect x="15.52" y="31.03" class="st0" width="0.96" height="0.97"/>
			<rect x="15.52" y="30.06" class="st0" width="0.96" height="0.97"/>
			<rect x="15.52" y="6.79" class="st0" width="0.96" height="0.97"/>
			<rect x="15.52" y="5.82" class="st0" width="0.96" height="0.97"/>
			<rect x="15.52" y="4.85" class="st0" width="0.96" height="0.96"/>
			<rect x="14.55" y="31.03" class="st0" width="0.97" height="0.97"/>
			<rect x="14.55" y="30.06" class="st0" width="0.97" height="0.97"/>
			<rect x="14.55" y="6.79" class="st0" width="0.97" height="0.97"/>
			<rect x="14.55" y="5.82" class="st0" width="0.97" height="0.97"/>
			<rect x="14.55" y="4.85" class="st0" width="0.97" height="0.96"/>
			<rect x="14.55" y="3.88" class="st0" width="0.97" height="0.97"/>
			<rect x="13.58" y="31.03" class="st0" width="0.97" height="0.97"/>
			<rect x="13.58" y="30.06" class="st0" width="0.97" height="0.97"/>
			<rect x="13.58" y="6.79" class="st0" width="0.97" height="0.97"/>
			<rect x="13.58" y="5.82" class="st0" width="0.97" height="0.97"/>
			<rect x="13.58" y="3.88" class="st0" width="0.97" height="0.97"/>
			<rect x="13.58" y="2.91" class="st0" width="0.97" height="0.97"/>
			<rect x="12.61" y="31.03" class="st0" width="0.97" height="0.97"/>
			<rect x="12.61" y="30.06" class="st0" width="0.97" height="0.97"/>
			<rect x="12.61" y="6.79" class="st0" width="0.97" height="0.97"/>
			<rect x="12.61" y="5.82" class="st0" width="0.97" height="0.97"/>
			<rect x="12.61" y="2.91" class="st0" width="0.97" height="0.97"/>
			<rect x="12.61" y="1.94" class="st0" width="0.97" height="0.97"/>
			<rect x="11.64" y="31.03" class="st0" width="0.97" height="0.97"/>
			<rect x="11.64" y="30.06" class="st0" width="0.97" height="0.97"/>
			<rect x="11.64" y="6.79" class="st0" width="0.97" height="0.97"/>
			<rect x="11.64" y="5.82" class="st0" width="0.97" height="0.97"/>
			<rect x="11.64" y="1.94" class="st0" width="0.97" height="0.97"/>
			<rect x="11.64" y="0.97" class="st0" width="0.97" height="0.97"/>
			<rect x="10.67" y="31.03" class="st0" width="0.97" height="0.97"/>
			<rect x="10.67" y="30.06" class="st0" width="0.97" height="0.97"/>
			<rect x="10.67" y="6.79" class="st0" width="0.97" height="0.97"/>
			<rect x="10.67" y="5.82" class="st0" width="0.97" height="0.97"/>
			<rect x="10.67" y="0.97" class="st0" width="0.97" height="0.97"/>
			<rect x="10.67" y="0" class="st0" width="0.97" height="0.97"/>
			<rect x="9.7" y="31.03" class="st0" width="0.97" height="0.97"/>
			<rect x="9.7" y="30.06" class="st0" width="0.97" height="0.97"/>
			<rect x="9.7" y="6.79" class="st0" width="0.97" height="0.97"/>
			<rect x="9.7" y="5.82" class="st0" width="0.97" height="0.97"/>
			<rect x="9.7" y="0.97" class="st0" width="0.97" height="0.97"/>
			<rect x="9.7" y="0" class="st0" width="0.97" height="0.97"/>
			<rect x="8.73" y="31.03" class="st0" width="0.97" height="0.97"/>
			<rect x="8.73" y="30.06" class="st0" width="0.97" height="0.97"/>
			<rect x="8.73" y="6.79" class="st0" width="0.97" height="0.97"/>
			<rect x="8.73" y="5.82" class="st0" width="0.97" height="0.97"/>
			<rect x="8.73" y="0.97" class="st0" width="0.97" height="0.97"/>
			<rect x="8.73" y="0" class="st0" width="0.97" height="0.97"/>
			<rect x="7.76" y="31.03" class="st0" width="0.97" height="0.97"/>
			<rect x="7.76" y="30.06" class="st0" width="0.97" height="0.97"/>
			<rect x="7.76" y="6.79" class="st0" width="0.97" height="0.97"/>
			<rect x="7.76" y="5.82" class="st0" width="0.97" height="0.97"/>
			<rect x="7.76" y="0.97" class="st0" width="0.97" height="0.97"/>
			<rect x="7.76" y="0" class="st0" width="0.97" height="0.97"/>
			<rect x="6.79" y="31.03" class="st0" width="0.97" height="0.97"/>
			<rect x="6.79" y="30.06" class="st0" width="0.97" height="0.97"/>
			<rect x="6.79" y="6.79" class="st0" width="0.97" height="0.97"/>
			<rect x="6.79" y="5.82" class="st0" width="0.97" height="0.97"/>
			<rect x="6.79" y="0.97" class="st0" width="0.97" height="0.97"/>
			<rect x="6.79" y="0" class="st0" width="0.97" height="0.97"/>
			<rect x="5.82" y="31.03" class="st0" width="0.97" height="0.97"/>
			<rect x="5.82" y="30.06" class="st0" width="0.97" height="0.97"/>
			<rect x="5.82" y="6.79" class="st0" width="0.97" height="0.97"/>
			<rect x="5.82" y="5.82" class="st0" width="0.97" height="0.97"/>
			<rect x="5.82" y="0.97" class="st0" width="0.97" height="0.97"/>
			<rect x="5.82" y="0" class="st0" width="0.97" height="0.97"/>
			<rect x="4.85" y="31.03" class="st0" width="0.97" height="0.97"/>
			<rect x="4.85" y="30.06" class="st0" width="0.97" height="0.97"/>
			<rect x="4.85" y="6.79" class="st0" width="0.97" height="0.97"/>
			<rect x="4.85" y="5.82" class="st0" width="0.97" height="0.97"/>
			<rect x="4.85" y="0.97" class="st0" width="0.97" height="0.97"/>
			<rect x="4.85" y="0" class="st0" width="0.97" height="0.97"/>
			<rect x="3.88" y="31.03" class="st0" width="0.97" height="0.97"/>
			<rect x="3.88" y="30.06" class="st0" width="0.97" height="0.97"/>
			<rect x="3.88" y="6.79" class="st0" width="0.97" height="0.97"/>
			<rect x="3.88" y="5.82" class="st0" width="0.97" height="0.97"/>
			<rect x="3.88" y="0.97" class="st0" width="0.97" height="0.97"/>
			<rect x="3.88" y="0" class="st0" width="0.97" height="0.97"/>
			<rect x="2.91" y="31.03" class="st0" width="0.97" height="0.97"/>
			<rect x="2.91" y="30.06" class="st0" width="0.97" height="0.97"/>
			<rect x="2.91" y="6.79" class="st0" width="0.97" height="0.97"/>
			<rect x="2.91" y="5.82" class="st0" width="0.97" height="0.97"/>
			<rect x="2.91" y="0.97" class="st0" width="0.97" height="0.97"/>
			<rect x="2.91" y="0" class="st0" width="0.97" height="0.97"/>
			<rect x="1.94" y="31.03" class="st0" width="0.97" height="0.97"/>
			<rect x="1.94" y="30.06" class="st0" width="0.97" height="0.97"/>
			<rect x="1.94" y="29.09" class="st0" width="0.97" height="0.97"/>
			<rect x="1.94" y="6.79" class="st0" width="0.97" height="0.97"/>
			<rect x="1.94" y="5.82" class="st0" width="0.97" height="0.97"/>
			<rect x="1.94" y="0.97" class="st0" width="0.97" height="0.97"/>
			<rect x="1.94" y="0" class="st0" width="0.97" height="0.97"/>
			<rect x="0.97" y="30.06" class="st0" width="0.97" height="0.97"/>
			<rect x="0.97" y="29.09" class="st0" width="0.97" height="0.97"/>
			<rect x="0.97" y="28.12" class="st0" width="0.97" height="0.97"/>
			<rect x="0.97" y="27.15" class="st0" width="0.97" height="0.97"/>
			<rect x="0.97" y="26.18" class="st0" width="0.97" height="0.97"/>
			<rect x="0.97" y="25.21" class="st0" width="0.97" height="0.97"/>
			<rect x="0.97" y="24.24" class="st0" width="0.97" height="0.97"/>
			<rect x="0.97" y="23.27" class="st0" width="0.97" height="0.97"/>
			<rect x="0.97" y="22.3" class="st0" width="0.97" height="0.97"/>
			<rect x="0.97" y="21.34" class="st0" width="0.97" height="0.96"/>
			<rect x="0.97" y="20.37" class="st0" width="0.97" height="0.97"/>
			<rect x="0.97" y="19.4" class="st0" width="0.97" height="0.97"/>
			<rect x="0.97" y="18.43" class="st0" width="0.97" height="0.97"/>
			<rect x="0.97" y="17.46" class="st0" width="0.97" height="0.97"/>
			<rect x="0.97" y="16.49" class="st0" width="0.97" height="0.97"/>
			<rect x="0.97" y="15.52" class="st0" width="0.97" height="0.97"/>
			<rect x="0.97" y="14.55" class="st0" width="0.97" height="0.97"/>
			<rect x="0.97" y="13.58" class="st0" width="0.97" height="0.97"/>
			<rect x="0.97" y="12.61" class="st0" width="0.97" height="0.97"/>
			<rect x="0.97" y="11.64" class="st0" width="0.97" height="0.97"/>
			<rect x="0.97" y="10.67" class="st0" width="0.97" height="0.97"/>
			<rect x="0.97" y="9.7" class="st0" width="0.97" height="0.97"/>
			<rect x="0.97" y="8.73" class="st0" width="0.97" height="0.97"/>
			<rect x="0.97" y="7.76" class="st0" width="0.97" height="0.97"/>
			<rect x="0.97" y="6.79" class="st0" width="0.97" height="0.97"/>
			<rect x="0.97" y="5.82" class="st0" width="0.97" height="0.97"/>
			<rect x="0.97" y="4.85" class="st0" width="0.97" height="0.96"/>
			<rect x="0.97" y="3.88" class="st0" width="0.97" height="0.97"/>
			<rect x="0.97" y="2.91" class="st0" width="0.97" height="0.97"/>
			<rect x="0.97" y="1.94" class="st0" width="0.97" height="0.97"/>
			<rect x="0.97" y="0.97" class="st0" width="0.97" height="0.97"/>
			<rect x="0.97" y="0" class="st0" width="0.97" height="0.97"/>
			<rect x="0" y="29.09" class="st0" width="0.97" height="0.97"/>
			<rect x="0" y="28.12" class="st0" width="0.97" height="0.97"/>
			<rect x="0" y="27.15" class="st0" width="0.97" height="0.97"/>
			<rect x="0" y="26.18" class="st0" width="0.97" height="0.97"/>
			<rect x="0" y="25.21" class="st0" width="0.97" height="0.97"/>
			<rect x="0" y="24.24" class="st0" width="0.97" height="0.97"/>
			<rect x="0" y="23.27" class="st0" width="0.97" height="0.97"/>
			<rect x="0" y="22.3" class="st0" width="0.97" height="0.97"/>
			<rect x="0" y="21.34" class="st0" width="0.97" height="0.96"/>
			<rect x="0" y="20.37" class="st0" width="0.97" height="0.97"/>
			<rect x="0" y="19.4" class="st0" width="0.97" height="0.97"/>
			<rect x="0" y="18.43" class="st0" width="0.97" height="0.97"/>
			<rect x="0" y="17.46" class="st0" width="0.97" height="0.97"/>
			<rect x="0" y="16.49" class="st0" width="0.97" height="0.97"/>
			<rect x="0" y="15.52" class="st0" width="0.97" height="0.97"/>
			<rect x="0" y="14.55" class="st0" width="0.97" height="0.97"/>
			<rect x="0" y="13.58" class="st0" width="0.97" height="0.97"/>
			<rect x="0" y="12.61" class="st0" width="0.97" height="0.97"/>
			<rect x="0" y="11.64" class="st0" width="0.97" height="0.97"/>
			<rect x="0" y="10.67" class="st0" width="0.97" height="0.97"/>
			<rect x="0" y="9.7" class="st0" width="0.97" height="0.97"/>
			<rect x="0" y="8.73" class="st0" width="0.97" height="0.97"/>
			<rect x="0" y="7.76" class="st0" width="0.97" height="0.97"/>
			<rect x="0" y="6.79" class="st0" width="0.97" height="0.97"/>
			<rect x="0" y="5.82" class="st0" width="0.97" height="0.97"/>
			<rect x="0" y="4.85" class="st0" width="0.97" height="0.96"/>
			<rect x="0" y="3.88" class="st0" width="0.97" height="0.97"/>
			<rect x="0" y="2.91" class="st0" width="0.97" height="0.97"/>
			<rect x="0" y="1.94" class="st0" width="0.97" height="0.97"/>
			<rect x="0" y="0.97" class="st0" width="0.97" height="0.97"/>
			<rect x="0" y="0" class="st0" width="0.97" height="0.97"/>
		</g>
		<g>
		</g>
	</g>
</g>
</svg>
