<?xml version="1.0" encoding="UTF-8"?><svg xmlns="http://www.w3.org/2000/svg" xmlns:xlink="http://www.w3.org/1999/xlink" viewBox="0 0 481.74 219.86"><defs><style>.f{fill:#cfcfcf;}.g{fill:#8f8f8f;}.h{clip-path:url(#e);}.i{clip-path:url(#d);}.j{fill:#acacac;}</style><clipPath id="e"><path d="M117.32,50.89c0,6.53-.98,12.32-2.93,17.37-1.95,5.05-4.63,9.46-8.03,13.23-3.4,3.77-7.39,6.97-11.96,9.59-4.58,2.63-9.47,4.76-14.69,6.41-5.22,1.65-10.62,2.86-16.2,3.63-5.59,.77-14.46,1.17-14.46,1.17-1.1,.05-2,.99-2,2.09v43.05c0,1.1-.9,2-2,2H2c-1.1,0-2-.9-2-2,0,0,.03-28.76,.1-44.04,.07-15.28,.17-30.69,.3-46.24,.13-8.21,.17-16.42,.1-24.63-.07-8.21,.44-22.84,.44-22.84,.04-1.1,.94-2.23,2-2.5,0,0,15.29-3.97,23.91-5.25,8.62-1.28,17.5-1.92,26.65-1.92,5.18,0,10.36,.42,15.55,1.26,5.18,.84,10.15,2.17,14.89,3.99,4.75,1.82,9.15,4.09,13.23,6.82,4.07,2.73,7.59,5.97,10.55,9.74,2.96,3.77,5.3,8.06,7.02,12.87,1.72,4.81,2.57,10.21,2.57,16.2Z"/></clipPath><clipPath id="d"><path class="h" d="M72.49,54.32c0-4.37-1.33-7.79-3.99-10.25-2.66-2.46-6.11-3.69-10.35-3.69-1.41,0-2.88,.12-4.39,.35-1.51,.24-2.34,.42-2.34,.42-1.07,.24-1.99,1.34-2.03,2.44l-1.05,25.48c-.05,1.1,.75,2.09,1.77,2.2h3.6c2.42,0,4.76-.4,7.02-1.21,2.25-.81,4.26-1.97,6.01-3.48,1.75-1.51,3.15-3.3,4.19-5.35,1.04-2.05,1.56-4.36,1.56-6.92Z"/></clipPath></defs><g id="a"/><g id="b"><g id="c"><g><g><path d="M117.32,50.89c0,6.53-.98,12.32-2.93,17.37-1.95,5.05-4.63,9.46-8.03,13.23-3.4,3.77-7.39,6.97-11.96,9.59-4.58,2.63-9.47,4.76-14.69,6.41-5.22,1.65-10.62,2.86-16.2,3.63-5.59,.77-14.46,1.17-14.46,1.17-1.1,.05-2,.99-2,2.09v43.05c0,1.1-.9,2-2,2H2c-1.1,0-2-.9-2-2,0,0,.03-28.76,.1-44.04,.07-15.28,.17-30.69,.3-46.24,.13-8.21,.17-16.42,.1-24.63-.07-8.21,.44-22.84,.44-22.84,.04-1.1,.94-2.23,2-2.5,0,0,15.29-3.97,23.91-5.25,8.62-1.28,17.5-1.92,26.65-1.92,5.18,0,10.36,.42,15.55,1.26,5.18,.84,10.15,2.17,14.89,3.99,4.75,1.82,9.15,4.09,13.23,6.82,4.07,2.73,7.59,5.97,10.55,9.74,2.96,3.77,5.3,8.06,7.02,12.87,1.72,4.81,2.57,10.21,2.57,16.2Z"/><path d="M72.49,54.32c0-4.37-1.33-7.79-3.99-10.25-2.66-2.46-6.11-3.69-10.35-3.69-1.41,0-2.88,.12-4.39,.35-1.51,.24-2.34,.42-2.34,.42-1.07,.24-1.99,1.34-2.03,2.44l-1.05,25.48c-.05,1.1,.75,2.09,1.77,2.2h3.6c2.42,0,4.76-.4,7.02-1.21,2.25-.81,4.26-1.97,6.01-3.48,1.75-1.51,3.15-3.3,4.19-5.35,1.04-2.05,1.56-4.36,1.56-6.92Z"/><g class="i"><path d="M117.32,50.89c0,6.53-.98,12.32-2.93,17.37-1.95,5.05-4.63,9.46-8.03,13.23-3.4,3.77-7.39,6.97-11.96,9.59-4.58,2.63-9.47,4.76-14.69,6.41-5.22,1.65-10.62,2.86-16.2,3.63-5.59,.77-14.46,1.17-14.46,1.17-1.1,.05-2,.99-2,2.09v43.05c0,1.1-.9,2-2,2H2c-1.1,0-2-.9-2-2,0,0,.03-28.76,.1-44.04,.07-15.28,.17-30.69,.3-46.24,.13-8.21,.17-16.42,.1-24.63-.07-8.21,.44-22.84,.44-22.84,.04-1.1,.94-2.23,2-2.5,0,0,15.29-3.97,23.91-5.25,8.62-1.28,17.5-1.92,26.65-1.92,5.18,0,10.36,.42,15.55,1.26,5.18,.84,10.15,2.17,14.89,3.99,4.75,1.82,9.15,4.09,13.23,6.82,4.07,2.73,7.59,5.97,10.55,9.74,2.96,3.77,5.3,8.06,7.02,12.87,1.72,4.81,2.57,10.21,2.57,16.2Zm-44.83,3.43c0-4.37-1.33-7.79-3.99-10.25-2.66-2.46-6.11-3.69-10.35-3.69-1.41,0-2.88,.12-4.39,.35-1.51,.24-2.34,.42-2.34,.42-1.07,.24-1.99,1.34-2.03,2.44l-1.05,25.48c-.05,1.1,.75,2.09,1.77,2.2h3.6c2.42,0,4.76-.4,7.02-1.21,2.25-.81,4.26-1.97,6.01-3.48,1.75-1.51,3.15-3.3,4.19-5.35,1.04-2.05,1.56-4.36,1.56-6.92Z"/><path d="M117.32,50.89c0,6.53-.98,12.32-2.93,17.37-1.95,5.05-4.63,9.46-8.03,13.23-3.4,3.77-7.39,6.97-11.96,9.59-4.58,2.63-9.47,4.76-14.69,6.41-5.22,1.65-10.62,2.86-16.2,3.63-5.59,.77-14.46,1.17-14.46,1.17-1.1,.05-2,.99-2,2.09v43.05c0,1.1-.9,2-2,2H2c-1.1,0-2-.9-2-2,0,0,.03-28.76,.1-44.04,.07-15.28,.17-30.69,.3-46.24,.13-8.21,.17-16.42,.1-24.63-.07-8.21,.44-22.84,.44-22.84,.04-1.1,.94-2.23,2-2.5,0,0,15.29-3.97,23.91-5.25,8.62-1.28,17.5-1.92,26.65-1.92,5.18,0,10.36,.42,15.55,1.26,5.18,.84,10.15,2.17,14.89,3.99,4.75,1.82,9.15,4.09,13.23,6.82,4.07,2.73,7.59,5.97,10.55,9.74,2.96,3.77,5.3,8.06,7.02,12.87,1.72,4.81,2.57,10.21,2.57,16.2Zm-44.83,3.43c0-4.37-1.33-7.79-3.99-10.25-2.66-2.46-6.11-3.69-10.35-3.69-1.41,0-2.88,.12-4.39,.35-1.51,.24-2.34,.42-2.34,.42-1.07,.24-1.99,1.34-2.03,2.44l-1.05,25.48c-.05,1.1,.75,2.09,1.77,2.2h3.6c2.42,0,4.76-.4,7.02-1.21,2.25-.81,4.26-1.97,6.01-3.48,1.75-1.51,3.15-3.3,4.19-5.35,1.04-2.05,1.56-4.36,1.56-6.92Z"/><path d="M117.32,50.89c0,6.53-.98,12.32-2.93,17.37-1.95,5.05-4.63,9.46-8.03,13.23-3.4,3.77-7.39,6.97-11.96,9.59-4.58,2.63-9.47,4.76-14.69,6.41-5.22,1.65-10.62,2.86-16.2,3.63-5.59,.77-14.46,1.17-14.46,1.17-1.1,.05-2,.99-2,2.09v43.05c0,1.1-.9,2-2,2H2c-1.1,0-2-.9-2-2,0,0,.03-28.76,.1-44.04,.07-15.28,.17-30.69,.3-46.24,.13-8.21,.17-16.42,.1-24.63-.07-8.21,.44-22.84,.44-22.84,.04-1.1,.94-2.23,2-2.5,0,0,15.29-3.97,23.91-5.25,8.62-1.28,17.5-1.92,26.65-1.92,5.18,0,10.36,.42,15.55,1.26,5.18,.84,10.15,2.17,14.89,3.99,4.75,1.82,9.15,4.09,13.23,6.82,4.07,2.73,7.59,5.97,10.55,9.74,2.96,3.77,5.3,8.06,7.02,12.87,1.72,4.81,2.57,10.21,2.57,16.2Zm-44.83,3.43c0-4.37-1.33-7.79-3.99-10.25-2.66-2.46-6.11-3.69-10.35-3.69-1.41,0-2.88,.12-4.39,.35-1.51,.24-2.34,.42-2.34,.42-1.07,.24-1.99,1.34-2.03,2.44l-1.05,25.48c-.05,1.1,.75,2.09,1.77,2.2h3.6c2.42,0,4.76-.4,7.02-1.21,2.25-.81,4.26-1.97,6.01-3.48,1.75-1.51,3.15-3.3,4.19-5.35,1.04-2.05,1.56-4.36,1.56-6.92Z"/></g></g><path d="M185.6,4.95c1.1-.06,1.92,.79,1.84,1.89l-10.78,133.52c-.09,1.1-1.06,2.04-2.16,2.1l-38.61,2.01c-1.1,.06-2-.8-2-1.9V9.67c0-1.1,.9-2.05,2-2.11l49.72-2.62Z"/><path class="g" d="M337.91,6.63c1.09,.13,1.54,1.02,.99,1.97l-37.38,64.99c-.55,.95-.56,2.52-.02,3.48l31.56,56.08c.54,.96,.12,2.01-.93,2.34l-38.38,11.94c-1.05,.33-2.27-.23-2.72-1.24l-16.56-37.53c-.44-1.01-1.22-1.03-1.73-.05l-19.57,37.84c-.51,.98-1.77,1.47-2.8,1.1l-39.85-14.39c-1.03-.37-1.4-1.44-.81-2.37l35.01-55.18c.59-.93,.64-2.48,.11-3.44l-31.99-58.08c-.53-.96-.09-1.96,.98-2.22L256.17,1.68c1.07-.26,2.28,.37,2.7,1.38l15.05,36.88c.42,1.02,1.11,1.03,1.55,.02l15.98-36.92c.44-1.01,1.69-1.73,2.78-1.6l43.68,5.18Z"/><path class="j" d="M387.77,144.8c-1.1-.01-2.01-.93-2.02-2.03l-.3-39.81c0-1.1-.92-2.01-2.02-2.03l-37.8-.61c-1.1-.02-2.01-.93-2.03-2.03l-.62-46.16c-.01-1.1,.87-2.03,1.97-2.06l37.81-1.21c1.1-.04,2-.96,2-2.06V11.33c0-1.1,.9-2.09,1.99-2.21l47.86-4.94c1.09-.11,2,.69,2.02,1.79l.61,38.47c.02,1.1,.93,1.97,2.03,1.94l39.81-1.22c1.1-.03,2.01,.84,2.02,1.94l.62,53.19c.01,1.1-.88,1.99-1.98,1.97l-39.81-.61c-1.1-.02-1.99,.87-1.97,1.97l.61,39.81c.02,1.1-.87,1.99-1.97,1.97l-48.84-.62Z"/><path class="f" d="M400.86,160.31c-.93-.56-2.13-.3-2.75,.59-14.9,21.18-39.53,35.03-67.4,35.03s-52.43-13.81-67.34-34.95c-.65-.92-1.91-1.17-2.84-.54l-16.37,11.04c-1.01,.68-1.21,2.09-.43,3.03,24.74,29.52,45.01,45.34,86.75,45.34s65.61-15.11,88.38-46.03c.71-.97,.44-2.35-.6-2.98l-17.41-10.54Z"/></g></g></g></svg>