<?xml version="1.0" encoding="UTF-8"?><svg id="pointing" xmlns="http://www.w3.org/2000/svg" viewBox="0 0 24 24"><defs><style>.cls-1{fill:#1d1e1f;}</style></defs><g><rect class="cls-1" x="20.16" y="21.12" width=".96" height=".96"/><rect class="cls-1" x="19.2" y="21.12" width=".96" height=".96"/><rect class="cls-1" x="18.24" y="21.12" width=".96" height=".96"/><rect class="cls-1" x="17.28" y="21.12" width=".96" height=".96"/><rect class="cls-1" x="16.32" y="21.12" width=".96" height=".96"/><rect class="cls-1" x="15.36" y="21.12" width=".96" height=".96"/><rect class="cls-1" x="14.4" y="21.12" width=".96" height=".96"/><rect class="cls-1" x="13.44" y="21.12" width=".96" height=".96"/><rect class="cls-1" x="12.48" y="21.12" width=".96" height=".96"/><rect class="cls-1" x="11.52" y="21.12" width=".96" height=".96"/><rect class="cls-1" x="10.56" y="21.12" width=".96" height=".96"/><rect class="cls-1" x="9.6" y="21.12" width=".96" height=".96"/><rect class="cls-1" x="8.64" y="21.12" width=".96" height=".96"/><rect class="cls-1" x="7.68" y="21.12" width=".96" height=".96"/><rect class="cls-1" x="6.72" y="21.12" width=".96" height=".96"/><rect class="cls-1" x="5.76" y="21.12" width=".96" height=".96"/><rect class="cls-1" x="4.8" y="21.12" width=".96" height=".96"/><rect class="cls-1" x="3.84" y="21.12" width=".96" height=".96"/><rect class="cls-1" x="2.88" y="21.12" width=".96" height=".96"/></g><g><rect class="cls-1" x="3.71" y="18.45" width=".96" height=".96" transform="translate(-12.16 8.51) rotate(-45)"/><rect class="cls-1" x="2.36" y="18.45" width=".96" height=".96" transform="translate(-12.55 7.55) rotate(-45)"/><rect class="cls-1" x="10.5" y="18.45" width=".96" height=".96" transform="translate(-10.17 13.31) rotate(-45)"/><rect class="cls-1" x="11.18" y="17.77" width=".96" height=".96" transform="translate(-9.49 13.59) rotate(-45)"/><rect class="cls-1" x="11.86" y="17.09" width=".96" height=".96" transform="translate(-8.81 13.87) rotate(-45)"/><rect class="cls-1" x="12.54" y="16.41" width=".96" height=".96" transform="translate(-8.13 14.15) rotate(-45)"/><rect class="cls-1" x="13.22" y="15.73" width=".96" height=".96" transform="translate(-7.45 14.43) rotate(-45)"/><rect class="cls-1" x="13.9" y="15.05" width=".96" height=".96" transform="translate(-6.77 14.72) rotate(-45)"/><rect class="cls-1" x="14.57" y="14.38" width=".96" height=".96" transform="translate(-6.1 15) rotate(-45)"/><rect class="cls-1" x="15.25" y="13.7" width=".96" height=".96" transform="translate(-5.42 15.28) rotate(-45)"/><rect class="cls-1" x="15.93" y="13.02" width=".96" height=".96" transform="translate(-4.74 15.56) rotate(-45)"/><rect class="cls-1" x="16.61" y="12.34" width=".96" height=".96" transform="translate(-4.06 15.84) rotate(-45)"/><rect class="cls-1" x="17.29" y="11.66" width=".96" height=".96" transform="translate(-3.38 16.12) rotate(-45)"/><rect class="cls-1" x="17.97" y="10.98" width=".96" height=".96" transform="translate(-2.7 16.4) rotate(-45)"/><rect class="cls-1" x="18.65" y="10.3" width=".96" height=".96" transform="translate(-2.02 16.68) rotate(-45)"/><rect class="cls-1" x="19.33" y="9.62" width=".96" height=".96" transform="translate(-1.34 16.96) rotate(-45)"/><rect class="cls-1" x="20.01" y="8.95" width=".96" height=".96" transform="translate(-.66 17.25) rotate(-45)"/><rect class="cls-1" x="20.68" y="8.27" width=".96" height=".96" transform="translate(.01 17.53) rotate(-45)"/><rect class="cls-1" x="21.36" y="7.59" width=".96" height=".96" transform="translate(.69 17.81) rotate(-45)"/><rect class="cls-1" x="22.04" y="6.91" width=".96" height=".96" transform="translate(1.37 18.09) rotate(-45)"/><rect class="cls-1" x="9.82" y="17.77" width=".96" height=".96" transform="translate(-9.89 12.63) rotate(-45)"/><rect class="cls-1" x="11.86" y="15.73" width=".96" height=".96" transform="translate(-7.85 13.47) rotate(-45)"/><rect class="cls-1" x="21.36" y="6.23" width=".96" height=".96" transform="translate(1.65 17.41) rotate(-45)"/><rect class="cls-1" x="7.79" y="18.45" width=".96" height=".96" transform="translate(-10.96 11.39) rotate(-45)"/><rect class="cls-1" x="8.47" y="17.77" width=".96" height=".96" transform="translate(-10.28 11.67) rotate(-45)"/><rect class="cls-1" x="9.14" y="17.09" width=".96" height=".96" transform="translate(-9.61 11.95) rotate(-45)"/><rect class="cls-1" x="11.18" y="15.05" width=".96" height=".96" transform="translate(-7.57 12.8) rotate(-45)"/><rect class="cls-1" x="20.68" y="5.55" width=".96" height=".96" transform="translate(1.93 16.73) rotate(-45)"/><rect class="cls-1" x="6.43" y="18.45" width=".96" height=".96" transform="translate(-11.36 10.43) rotate(-45)"/><rect class="cls-1" x="7.11" y="17.77" width=".96" height=".96" transform="translate(-10.68 10.71) rotate(-45)"/><rect class="cls-1" x="7.79" y="17.09" width=".96" height=".96" transform="translate(-10 10.99) rotate(-45)"/><rect class="cls-1" x="8.47" y="16.41" width=".96" height=".96" transform="translate(-9.32 11.27) rotate(-45)"/><rect class="cls-1" x="10.5" y="14.38" width=".96" height=".96" transform="translate(-7.29 12.12) rotate(-45)"/><rect class="cls-1" x="20.01" y="4.87" width=".96" height=".96" transform="translate(2.22 16.05) rotate(-45)"/><rect class="cls-1" x="5.07" y="18.45" width=".96" height=".96" transform="translate(-11.76 9.47) rotate(-45)"/><rect class="cls-1" x="5.75" y="17.77" width=".96" height=".96" transform="translate(-11.08 9.75) rotate(-45)"/><rect class="cls-1" x="6.43" y="17.09" width=".96" height=".96" transform="translate(-10.4 10.03) rotate(-45)"/><rect class="cls-1" x="7.11" y="16.41" width=".96" height=".96" transform="translate(-9.72 10.31) rotate(-45)"/><rect class="cls-1" x="7.79" y="15.73" width=".96" height=".96" transform="translate(-9.04 10.59) rotate(-45)"/><rect class="cls-1" x="9.82" y="13.7" width=".96" height=".96" transform="translate(-7.01 11.44) rotate(-45)"/><rect class="cls-1" x="19.33" y="4.19" width=".96" height=".96" transform="translate(2.5 15.37) rotate(-45)"/><rect class="cls-1" x="4.39" y="17.77" width=".96" height=".96" transform="translate(-11.48 8.79) rotate(-45)"/><rect class="cls-1" x="5.07" y="17.09" width=".96" height=".96" transform="translate(-10.8 9.07) rotate(-45)"/><rect class="cls-1" x="5.75" y="16.41" width=".96" height=".96" transform="translate(-10.12 9.35) rotate(-45)"/><rect class="cls-1" x="6.43" y="15.73" width=".96" height=".96" transform="translate(-9.44 9.63) rotate(-45)"/><rect class="cls-1" x="7.11" y="15.05" width=".96" height=".96" transform="translate(-8.76 9.92) rotate(-45)"/><rect class="cls-1" x="9.14" y="13.02" width=".96" height=".96" transform="translate(-6.73 10.76) rotate(-45)"/><rect class="cls-1" x="18.65" y="3.51" width=".96" height=".96" transform="translate(2.78 14.7) rotate(-45)"/><rect class="cls-1" x="3.03" y="17.77" width=".96" height=".96" transform="translate(-11.88 7.83) rotate(-45)"/><rect class="cls-1" x="3.71" y="17.09" width=".96" height=".96" transform="translate(-11.2 8.11) rotate(-45)"/><rect class="cls-1" x="4.39" y="16.41" width=".96" height=".96" transform="translate(-10.52 8.39) rotate(-45)"/><rect class="cls-1" x="5.07" y="15.73" width=".96" height=".96" transform="translate(-9.84 8.67) rotate(-45)"/><rect class="cls-1" x="5.75" y="15.05" width=".96" height=".96" transform="translate(-9.16 8.96) rotate(-45)"/><rect class="cls-1" x="6.43" y="14.38" width=".96" height=".96" transform="translate(-8.48 9.24) rotate(-45)"/><rect class="cls-1" x="8.47" y="12.34" width=".96" height=".96" transform="translate(-6.44 10.08) rotate(-45)"/><rect class="cls-1" x="17.97" y="2.84" width=".96" height=".96" transform="translate(3.06 14.02) rotate(-45)"/><rect class="cls-1" x="5.75" y="13.7" width=".96" height=".96" transform="translate(-8.2 8.56) rotate(-45)"/><rect class="cls-1" x="7.79" y="11.66" width=".96" height=".96" transform="translate(-6.16 9.4) rotate(-45)"/><rect class="cls-1" x="17.29" y="2.16" width=".96" height=".96" transform="translate(3.34 13.34) rotate(-45)"/><rect class="cls-1" x="5.07" y="13.02" width=".96" height=".96" transform="translate(-7.92 7.88) rotate(-45)"/><rect class="cls-1" x="5.75" y="12.34" width=".96" height=".96" transform="translate(-7.24 8.16) rotate(-45)"/><rect class="cls-1" x="6.43" y="11.66" width=".96" height=".96" transform="translate(-6.56 8.44) rotate(-45)"/><rect class="cls-1" x="7.11" y="10.98" width=".96" height=".96" transform="translate(-5.88 8.72) rotate(-45)"/><rect class="cls-1" x="7.79" y="10.3" width=".96" height=".96" transform="translate(-5.2 9) rotate(-45)"/><rect class="cls-1" x="8.47" y="9.62" width=".96" height=".96" transform="translate(-4.52 9.28) rotate(-45)"/><rect class="cls-1" x="9.14" y="8.95" width=".96" height=".96" transform="translate(-3.85 9.57) rotate(-45)"/><rect class="cls-1" x="9.82" y="8.27" width=".96" height=".96" transform="translate(-3.17 9.85) rotate(-45)"/><rect class="cls-1" x="10.5" y="7.59" width=".96" height=".96" transform="translate(-2.49 10.13) rotate(-45)"/><rect class="cls-1" x="11.18" y="6.91" width=".96" height=".96" transform="translate(-1.81 10.41) rotate(-45)"/><rect class="cls-1" x="11.86" y="6.23" width=".96" height=".96" transform="translate(-1.13 10.69) rotate(-45)"/><rect class="cls-1" x="12.54" y="5.55" width=".96" height=".96" transform="translate(-.45 10.97) rotate(-45)"/><rect class="cls-1" x="13.22" y="4.87" width=".96" height=".96" transform="translate(.23 11.25) rotate(-45)"/><rect class="cls-1" x="13.9" y="4.19" width=".96" height=".96" transform="translate(.91 11.53) rotate(-45)"/><rect class="cls-1" x="14.57" y="3.51" width=".96" height=".96" transform="translate(1.58 11.82) rotate(-45)"/><rect class="cls-1" x="15.25" y="2.84" width=".96" height=".96" transform="translate(2.26 12.1) rotate(-45)"/><rect class="cls-1" x="15.93" y="2.16" width=".96" height=".96" transform="translate(2.94 12.38) rotate(-45)"/><rect class="cls-1" x="16.61" y="1.48" width=".96" height=".96" transform="translate(3.62 12.66) rotate(-45)"/></g></svg>